SplineFontDB: 3.2
FontName: uncial
FullName: uncial
FamilyName: uncial
Weight: Book
Copyright: Generated by Glyphter
Version: 1.0
ItalicAngle: 0
UnderlinePosition: 19
UnderlineWidth: 0
Ascent: 1438
Descent: 610
InvalidEm: 0
sfntRevision: 0x00010000
LayerCount: 2
Layer: 0 1 "Back" 1
Layer: 1 1 "Fore" 0
XUID: [1021 651 680229364 12435455]
StyleMap: 0x0040
FSType: 8
OS2Version: 1
OS2_WeightWidthSlopeOnly: 0
OS2_UseTypoMetrics: 0
CreationTime: 1606705982
ModificationTime: 1606844498
PfmFamily: 17
TTFWeight: 400
TTFWidth: 5
LineGap: 184
VLineGap: 0
Panose: 2 0 5 3 0 0 0 0 0 0
OS2TypoAscent: 2048
OS2TypoAOffset: 0
OS2TypoDescent: 0
OS2TypoDOffset: 0
OS2TypoLinegap: 184
OS2WinAscent: 2194
OS2WinAOffset: 0
OS2WinDescent: 154
OS2WinDOffset: 0
HheadAscent: 2048
HheadAOffset: 0
HheadDescent: 0
HheadDOffset: 0
OS2SubXSize: 1298
OS2SubYSize: 1432
OS2SubXOff: 0
OS2SubYOff: 286
OS2SupXSize: 1298
OS2SupYSize: 1432
OS2SupXOff: 0
OS2SupYOff: 982
OS2StrikeYSize: 99
OS2StrikeYPos: 528
OS2Vendor: 'PfEd'
OS2CodePages: 00000001.00000000
OS2UnicodeRanges: 00000000.00000000.00000000.00000000
MarkAttachClasses: 1
DEI: 91125
ShortTable: maxp 16
  1
  0
  23
  56
  2
  0
  0
  2
  0
  10
  10
  0
  255
  0
  0
  0
EndShort
LangName: 1033 "" "" "Regular" "uncial" "" "Version 1.0"
Encoding: UnicodeBmp
UnicodeInterp: none
NameList: AGL For New Fonts
DisplaySize: -48
AntiAlias: 1
FitToEm: 0
WinInfo: 0 25 8
BeginPrivate: 0
EndPrivate
BeginChars: 65536 50

StartChar: A
Encoding: 65 65 1
Width: 1296
VWidth: 1822
Flags: W
HStem: 979 134<247.478 355.236>
VStem: 130 196<122 513.391>
LayerCount: 2
Fore
SplineSet
169 3 m 1,0,-1
 167 10 l 2,1,2
 130 134 130 134 130 256.5 c 128,-1,3
 130 379 130 379 169 499 c 0,4,5
 246 732 246 732 481 789 c 1,6,7
 428 887 428 887 342 943 c 0,8,9
 286 979 286 979 205 979 c 2,10,-1
 199 979 l 2,11,12
 151 979 151 979 92 965 c 2,13,-1
 6 945 l 1,14,-1
 85 984 l 2,15,16
 175 1028 175 1028 255 1073 c 0,17,18
 328 1113 328 1113 442 1113 c 0,19,20
 485 1113 485 1113 536 1107 c 1,21,22
 777 906 777 906 948 640 c 128,-1,23
 1119 374 1119 374 1303 127 c 1,24,25
 1352 115 1352 115 1372 103 c 0,26,27
 1380 98 1380 98 1388 98 c 0,28,29
 1408 98 1408 98 1433 111 c 1,30,-1
 1443 93 l 1,31,32
 1374 51 1374 51 1285.5 14.5 c 128,-1,33
 1197 -22 1197 -22 1082 -31 c 1,34,35
 935 103 935 103 828 272 c 0,36,37
 731 427 731 427 645 591 c 1,38,39
 610 303 610 303 559 187 c 0,40,41
 478 3 478 3 186 3 c 2,42,-1
 169 3 l 1,0,-1
463 383 m 0,43,44
 503 490 503 490 503 515 c 2,45,-1
 503 519 l 2,46,47
 503 632 503 632 472 671 c 1,48,49
 350 603 350 603 335 470 c 0,50,51
 328 405 328 405 327 345 c 0,52,53
 326 234 326 234 326 122 c 1,54,55
 383 170 383 170 463 383 c 0,43,44
EndSplineSet
EndChar

StartChar: B
Encoding: 66 66 2
Width: 1041
VWidth: 1547
Flags: W
HStem: 4 125<391 570.404> 611 64<394 415> 1012 106<16.4146 69.3774>
VStem: 113 277<139.677 611> 129 263<139.677 611 675 970.865> 786 248<352 533.635>
LayerCount: 2
Fore
SplineSet
920 720 m 1,0,1
 1034 607 1034 607 1034 492 c 0,2,3
 1034 347 1034 347 850 204 c 0,4,5
 589 4 589 4 316 4 c 0,6,7
 241 4 241 4 158 21 c 1,8,-1
 156 27 l 2,9,10
 113 164 113 164 113 338 c 0,11,12
 113 342 113 342 113 346 c 2,13,-1
 113 354 l 2,14,15
 113 440 113 440 122 535 c 0,16,17
 129 602 129 602 129 666 c 2,18,-1
 129 681 l 2,19,20
 129 875 129 875 70 1010 c 1,21,22
 50 1012 50 1012 40 1012 c 2,23,-1
 39 1012 l 1,24,25
 7 1012 7 1012 -15 1003 c 0,26,27
 -47 992 -47 992 -89 992 c 0,28,29
 -101 992 -101 992 -145 995 c 1,30,-1
 -119 1011 l 2,31,32
 -28 1067 -28 1067 129 1107 c 0,33,34
 175 1118 175 1118 214 1118 c 0,35,36
 315 1118 315 1118 383 1049 c 1,37,38
 515 1138 515 1138 703 1160 c 0,39,40
 723 1162 723 1162 744 1162 c 0,41,42
 832 1162 832 1162 878 1113 c 0,43,44
 914 1074 914 1074 923 1004 c 0,45,-1
 923 1002 l 1,46,47
 921 923 921 923 843 858 c 0,48,49
 786 810 786 810 724 771 c 1,50,51
 765 766 765 766 813 760 c 0,52,53
 875 751 875 751 919 721 c 0,54,-1
 920 720 l 1,0,1
661 910 m 0,55,56
 660 968 660 968 621 989 c 0,57,58
 578 1013 578 1013 530 1013 c 0,59,60
 472 1013 472 1013 392 992 c 1,61,62
 392 872 392 872 393 826 c 0,63,64
 394 748 394 748 394 675 c 1,65,-1
 416 681 l 2,66,67
 638 742 638 742 660 898 c 0,68,69
 661 905 661 905 661 910 c 0,55,56
415 615 m 2,70,-1
 392 611 l 1,71,72
 390 394 390 394 390 320 c 128,-1,73
 390 246 390 246 391 143 c 1,74,75
 461 129 461 129 520 129 c 0,76,77
 622 129 622 129 686 172 c 0,78,79
 763 224 763 224 782 345 c 0,80,81
 786 364 l 0,82,83
 786 626 786 626 531 626 c 0,84,85
 478 626 478 626 415 615 c 2,70,-1
EndSplineSet
EndChar

StartChar: C
Encoding: 67 67 3
Width: 1130
VWidth: 1543
Flags: W
HStem: -1 129<598.01 828.047> 991 185<542.266 754.977>
VStem: 13 238<464.75 696.136>
LayerCount: 2
Fore
SplineSet
592 991 m 1,0,-1
 581 991 l 2,1,2
 422 991 422 991 328 888 c 1,3,4
 256 718 256 718 251 650 c 1,5,6
 251 462 251 462 422 295 c 0,7,8
 594 128 594 128 806 128 c 0,9,10
 954 128 954 128 1119 211 c 1,11,-1
 1129 194 l 1,12,13
 867 -1 867 -1 525 -1 c 0,14,15
 506 -1 506 -1 487 0 c 0,16,17
 122 11 122 11 18 385 c 1,18,19
 13 426 13 426 13 466 c 0,20,21
 13 739 13 739 230 927 c 0,22,23
 496 1156 496 1156 708 1175 c 0,24,25
 720 1176 720 1176 760 1176 c 0,26,27
 979 1176 979 1176 1011 1054 c 0,28,29
 1016 1033 1016 1033 1015 1022 c 0,30,31
 1015 1020 1015 1020 1015 1017 c 0,32,33
 1015 907 1015 907 827 859 c 2,34,-1
 817 857 l 1,35,-1
 814 866 l 2,36,37
 774 987 774 987 592 991 c 1,0,-1
EndSplineSet
EndChar

StartChar: D
Encoding: 68 68 4
Width: 1383
VWidth: 1889
Flags: WO
HStem: -6 145<448 745.797>
VStem: 10 266<487.047 729.084> 226 254<1398.05 1495.4> 1113 256<431.743 766.995>
LayerCount: 2
Fore
SplineSet
480 1581 m 1,0,-1
 480 1580 l 2,1,2
 480 1236 480 1236 944 1145 c 0,3,4
 1181 1098 1181 1098 1286 943 c 0,5,6
 1369 819 1369 819 1369 628 c 0,7,8
 1369 576 1369 576 1363 518 c 1,9,10
 1354 484 1354 484 1329 440 c 0,11,12
 1303 394 1303 394 1260 350 c 0,13,14
 1175 265 1175 265 1041 190 c 0,15,16
 906 115 906 115 772 49 c 1,17,18
 644 -6 644 -6 527 -6 c 0,19,20
 369 -6 369 -6 234 92 c 0,21,22
 10 255 10 255 10 569 c 0,23,24
 10 589 10 589 11 600 c 0,25,26
 29 737 29 737 174 898 c 0,27,28
 263 997 263 997 352 1096 c 1,29,30
 226 1167 226 1167 226 1333 c 0,31,32
 226 1389 226 1389 250 1451 c 0,33,34
 345 1697 345 1697 644 1747 c 2,35,-1
 648 1747 l 1,36,-1
 651 1746 l 2,37,38
 666 1737 666 1737 666 1725 c 0,39,-1
 666 1724 l 2,40,41
 666 1712 666 1712 648 1699 c 128,-1,42
 630 1686 630 1686 591 1671 c 0,43,44
 503 1636 503 1636 480 1581 c 1,0,-1
508 1061 m 1,45,46
 288 948 288 948 276 739 c 0,47,48
 276 735 276 735 276 728 c 0,49,50
 276 706 276 706 281 661 c 0,51,52
 318 327 318 327 575 169 c 1,53,-1
 579 168 l 1,54,55
 625 149 625 149 681 142 c 0,56,57
 703 139 703 139 731 139 c 128,-1,58
 759 139 759 139 796 146 c 0,59,60
 870 167 870 167 943 228 c 0,61,62
 1015 289 1015 289 1070 368 c 1,63,64
 1113 463 1113 463 1113 571 c 2,65,-1
 1113 584 l 2,66,67
 1113 609 1113 609 1110 636 c 0,68,69
 1094 780 1094 780 976 888 c 1,70,71
 901 949 901 949 759 1004 c 0,72,73
 618 1057 618 1057 529 1062 c 1,74,-1
 508 1061 l 1,45,46
EndSplineSet
EndChar

StartChar: E
Encoding: 69 69 5
Width: 1115
VWidth: 1540
Flags: W
HStem: 10 150<578.8 835.084> 740 48<826.598 974.316> 1039 145<483.687 751>
VStem: 3 267<454.282 623.815> 629 435<808 954>
LayerCount: 2
Fore
SplineSet
1036 864 m 2,0,1
 1064 843 1064 843 1064 822 c 0,2,3
 1064 794 1064 794 1014 773 c 0,4,5
 939 741 939 741 919 740 c 1,6,7
 897 732 897 732 687 685 c 0,8,9
 478 638 478 638 270 623 c 1,10,11
 302 339 302 339 546 219 c 0,12,13
 666 160 666 160 797 160 c 0,14,15
 936 160 936 160 1083 228 c 2,16,-1
 1150 259 l 1,17,-1
 1093 211 l 2,18,19
 855 10 855 10 595 10 c 0,20,21
 484 10 484 10 369 48 c 0,22,23
 3 171 3 171 3 605 c 2,24,-1
 3 615 l 1,25,26
 12 709 12 709 69 804 c 0,27,28
 148 936 148 936 181 964 c 0,29,30
 310 1072 310 1072 526 1158 c 0,31,32
 591 1184 591 1184 695 1184 c 0,33,34
 807 1184 807 1184 886 1102 c 2,35,-1
 889 1099 l 1,36,-1
 888 1094 l 2,37,38
 875 977 875 977 782 891 c 0,39,40
 728 841 728 841 673 791 c 1,41,42
 840 788 l 2,43,-1
 870 788 l 1,44,45
 1006 801 1006 801 1020 858 c 2,46,-1
 1024 873 l 1,47,-1
 1036 864 l 2,0,1
512 785 m 0,48,49
 628 830 628 830 629 937 c 0,50,51
 629 971 629 971 617 1011 c 1,52,53
 553 1039 553 1039 501 1039 c 0,54,55
 420 1039 420 1039 362 971 c 0,56,57
 269 866 269 866 250 710 c 1,58,59
 359 726 359 726 512 785 c 0,48,49
EndSplineSet
EndChar

StartChar: F
Encoding: 70 70 6
Width: 1172
VWidth: 1843
Flags: W
HStem: 60 165<584 903.3> 1218 20G<379 469.5 988.5 1071.5>
VStem: 319 265<-131.844 60 228 828.916> 341 243<228 392.485 398.548 805.249>
LayerCount: 2
Fore
SplineSet
212 140 m 0,0,1
 281 175 281 175 331 207 c 1,2,3
 326 299 326 299 326 395.5 c 128,-1,4
 326 492 326 492 339 723 c 0,5,6
 341 755 341 755 341 789 c 2,7,-1
 341 793 l 2,8,9
 341 1007 341 1007 221 1104 c 1,10,11
 210 1105 210 1105 200 1105 c 2,12,-1
 196 1105 l 2,13,14
 154 1105 154 1105 126 1087 c 0,15,16
 87 1062 87 1062 39 1048 c 2,17,-1
 8 1040 l 1,18,-1
 29 1064 l 2,19,20
 149 1205 149 1205 340 1234 c 0,21,22
 367 1238 367 1238 391 1238 c 2,23,-1
 393 1238 l 2,24,25
 546 1238 546 1238 600 1054 c 1,26,27
 720 1145 720 1145 890 1234 c 0,28,29
 959 1270 959 1270 1018 1270 c 2,30,-1
 1020 1270 l 2,31,32
 1123 1270 1123 1270 1199 1157 c 2,33,-1
 1203 1151 l 1,34,-1
 1198 1145 l 2,35,36
 1157 1098 1157 1098 1103.5 1067.5 c 128,-1,37
 1050 1037 1050 1037 1008 996 c 2,38,-1
 997 985 l 1,39,-1
 991 999 l 2,40,41
 952 1087 952 1087 865 1122 c 1,42,43
 638 1052 638 1052 611 789 c 0,44,45
 584 521 584 521 584 228 c 1,46,47
 630 225 630 225 696.5 225 c 128,-1,48
 763 225 763 225 864 233 c 0,49,50
 1022 246 1022 246 1170 267 c 2,51,-1
 1204 272 l 1,52,-1
 1178 250 l 2,53,54
 1073 160 1073 160 927 111 c 0,55,56
 777 62 777 62 584 60 c 1,57,58
 582 -127 582 -127 473 -209 c 0,59,60
 366 -292 366 -292 249 -369 c 2,61,-1
 225 -386 l 1,62,-1
 294 -185 l 2,63,64
 316 -119 316 -119 319 -27 c 1,65,-1
 319 -16 l 2,66,67
 319 22 319 22 312 65 c 1,68,69
 292 71 292 71 277 71 c 0,70,71
 257 71 257 71 235 65 c 0,72,73
 182 51 182 51 139 42 c 1,74,-1
 139 57 l 2,75,76
 139 100 139 100 212 140 c 0,0,1
EndSplineSet
EndChar

StartChar: G
Encoding: 71 71 7
Width: 1322
VWidth: 1702
Flags: W
HStem: 38 149<534.808 929.569> 1152 20G<846 931.5> 1152 20G<846 931.5>
VStem: 72 245<388.442 682.962>
LayerCount: 2
Fore
SplineSet
1084 152 m 1,0,1
 925 42 925 42 568 38 c 0,2,3
 546 38 546 38 523 39 c 0,4,5
 171 53 171 53 79 385 c 1,6,7
 72 433 72 433 72 478 c 0,8,9
 72 583 72 583 111 671 c 0,10,11
 165 796 165 796 243 909 c 0,12,-1
 244 910 l 1,13,14
 399 1080 399 1080 632 1132 c 0,15,16
 763 1161 763 1161 826 1168 c 0,17,18
 846 1171 l 2,19,-1
 848 1172 l 1,20,-1
 851 1172 l 2,21,22
 1012 1172 1012 1172 1131 1051 c 2,23,-1
 1134 1048 l 1,24,-1
 1134 1044 l 2,25,26
 1133 1010 1133 1010 1121 990 c 0,27,28
 1104 963 1104 963 1067 956 c 0,29,30
 1008 945 1008 945 978 911 c 2,31,-1
 972 904 l 1,32,-1
 964 908 l 2,33,34
 760 1015 760 1015 658 1016 c 0,35,36
 645 1016 645 1016 634 1014 c 0,37,38
 409 980 409 980 343 744 c 0,39,40
 317 652 317 652 317 581 c 0,41,42
 317 274 317 274 660 188 c 0,43,44
 664 187 664 187 691 187 c 0,45,46
 874 187 874 187 1044 276 c 0,47,48
 1299 409 1299 409 1301 410 c 2,49,-1
 1324 423 l 1,50,51
 1249 204 1249 204 1185 7 c 0,52,53
 1122 -190 1122 -190 962 -303 c 2,54,-1
 928 -327 l 1,55,-1
 946 -291 l 2,56,57
 985 -212 985 -212 1031 -71 c 0,58,59
 1066 34 1066 34 1084 152 c 1,0,1
EndSplineSet
EndChar

StartChar: H
Encoding: 72 72 8
Width: 1217
VWidth: 1843
Flags: W
HStem: 986 168<588.422 833.668> 1434 142<-5 299>
VStem: 107 294<130.318 931.953> 147 261<408.691 934.303> 974 277<478.028 810.504>
LayerCount: 2
Fore
SplineSet
1238 854 m 1,0,1
 1251 783 1251 783 1251 716 c 0,2,3
 1251 501 1251 501 1124 312 c 0,4,5
 957 65 957 65 718 -23 c 2,6,-1
 649 -49 l 1,7,-1
 708 -6 l 2,8,9
 974 186 974 186 974 531 c 0,10,11
 974 604 974 604 962 684 c 0,12,13
 942 819 942 819 884 894 c 0,14,15
 813 986 813 986 681 986 c 0,16,17
 566 986 566 986 406 916 c 1,18,19
 408 842 408 842 408 741 c 128,-1,20
 408 640 408 640 405 553 c 0,21,22
 401 466 401 466 401 423 c 0,23,24
 401 264 401 264 425 126 c 1,25,26
 454 91 454 91 473 86 c 1,27,-1
 475 86 l 1,28,-1
 599 97 l 1,29,-1
 583 79 l 2,30,31
 524 10 524 10 436 -27 c 0,32,33
 354 -62 354 -62 234 -62 c 2,34,-1
 209 -62 l 1,35,-1
 206 -57 l 2,36,37
 107 133 107 133 107 405 c 0,38,39
 107 523 107 523 125 656 c 0,40,41
 147 822 147 822 147 969 c 0,42,43
 147 1210 147 1210 87 1403 c 1,44,45
 44 1425 44 1425 12 1432 c 0,46,47
 5 1434 5 1434 -5 1434 c 0,48,49
 -33 1434 -33 1434 -75 1420 c 2,50,-1
 -129 1401 l 1,51,-1
 -85 1437 l 2,52,53
 -13 1495 -13 1495 75 1534 c 0,54,55
 167 1574 167 1574 299 1576 c 1,56,-1
 302 1573 l 2,57,58
 396 1483 396 1483 418 1301 c 0,59,60
 427 1232 427 1232 427 1165 c 0,61,62
 427 1105 427 1105 412 1024 c 5,63,64
 573 1143 573 1143 875 1154 c 0,65,-1
 876 1154 l 1,66,-1
 892 1155 l 1,67,68
 1145 1155 1145 1155 1238 854 c 1,0,1
EndSplineSet
EndChar

StartChar: I
Encoding: 73 73 9
Width: 661
VWidth: 1566
Flags: W
HStem: 9 21G<241 324.5> 1153 20G<258.5 318> 1153 20G<258.5 318>
VStem: 102 244<237.387 880.87>
LayerCount: 2
Fore
SplineSet
318 1167 m 2,0,1
 391 1057 391 1057 391 884 c 0,2,3
 391 784 391 784 367 662 c 0,4,5
 346 563 346 563 346 476 c 0,6,7
 346 472 346 472 346 468 c 0,8,9
 346 280 346 280 438 151 c 1,10,11
 462 151 462 151 484 150 c 0,12,13
 521 150 521 150 557 151 c 2,14,15
 615 152 615 152 655 169 c 2,16,-1
 705 192 l 1,17,-1
 666 153 l 2,18,19
 572 61 572 61 395 20 c 0,20,21
 346 9 346 9 303 9 c 0,22,23
 179 9 179 9 104 99 c 2,24,-1
 102 102 l 1,25,-1
 102 541 l 2,26,27
 102 757 102 757 120 957 c 1,28,29
 110 995 110 995 84 1014 c 0,30,31
 68 1026 68 1026 37 1027 c 0,32,33
 21 1027 21 1027 2 1023 c 2,34,-1
 -30 1017 l 1,35,-1
 -7 1039 l 2,36,37
 47 1093 47 1093 125 1126 c 128,-1,38
 203 1159 203 1159 314 1173 c 1,39,-1
 318 1167 l 2,0,1
EndSplineSet
EndChar

StartChar: K
Encoding: 75 75 10
Width: 1538
VWidth: 1741
Flags: W
HStem: 42 150<1051.63 1284.18> 864 201<782.5 918.494> 1297 21G<47.3684 63.0769> 1354 122<161.717 211.066>
VStem: 166 237<153.69 408.107> 263 229<847.662 1300.09>
LayerCount: 2
Fore
SplineSet
224 17 m 2,0,1
 166 144 166 144 166 311 c 0,2,3
 166 454 166 454 208 626 c 0,4,5
 263 851 263 851 263 1037 c 0,6,7
 263 1155 263 1155 240 1258 c 1,8,9
 223 1310 223 1310 175 1342 c 0,10,11
 157 1354 157 1354 137 1354 c 0,12,13
 106 1354 106 1354 70 1323 c 2,14,-1
 40 1297 l 1,15,-1
 54 1335 l 2,16,17
 78 1395 78 1395 192 1446 c 1,18,19
 291 1476 291 1476 319 1476 c 0,20,21
 321 1476 321 1476 322 1476 c 128,-1,22
 323 1476 323 1476 325 1476 c 0,23,24
 375 1476 375 1476 432 1458 c 1,25,-1
 433 1455 l 2,26,27
 491 1348 491 1348 492 1162 c 2,28,-1
 492 1153 l 2,29,30
 492 967 492 967 471 842 c 1,31,32
 576 933 576 933 716 993 c 0,33,34
 882 1065 882 1065 920 1065 c 0,35,36
 921 1065 l 0,37,38
 992 1065 992 1065 1071 1036 c 2,39,-1
 1087 1030 l 1,40,-1
 1075 1019 l 2,41,42
 904 868 904 868 772 864 c 0,43,44
 578 859 578 859 513 700 c 1,45,46
 642 529 642 529 909 320 c 0,47,48
 1073 192 1073 192 1275 192 c 0,49,50
 1388 192 1388 192 1511 232 c 2,51,-1
 1575 254 l 1,52,-1
 1520 215 l 2,53,54
 1453 169 1453 169 1312 99 c 0,55,56
 1196 42 1196 42 1064 42 c 0,57,58
 1030 42 1030 42 996 46 c 1,59,60
 825 91 825 91 684 223 c 0,61,62
 551 347 551 347 429 410 c 1,63,64
 403 354 403 354 403 288 c 0,65,66
 403 255 403 255 409 222 c 0,67,68
 418 171 418 171 454 149 c 0,69,70
 483 130 483 130 529 130 c 0,71,72
 544 130 544 130 562 132 c 2,73,-1
 590 135 l 1,74,-1
 570 115 l 2,75,76
 512 56 512 56 421 24 c 0,77,78
 363 3 363 3 304 3 c 0,79,80
 267 3 267 3 226 12 c 1,81,-1
 224 17 l 2,0,1
EndSplineSet
EndChar

StartChar: L
Encoding: 76 76 11
Width: 579
VWidth: 1739
Flags: W
HStem: -2 117<327 586.75> 1304 21G<-53.8889 -17> 1472 20G<249 312>
VStem: 163 244<181.467 923.043> 218 255<775.707 1263.49>
LayerCount: 2
Fore
SplineSet
442 185 m 1,0,1
 469 140 469 140 519 123 c 0,2,3
 544 115 544 115 572.5 115 c 128,-1,4
 601 115 601 115 630 124 c 2,5,-1
 667 134 l 1,6,-1
 640 107 l 2,7,8
 557 23 557 23 431 2 c 0,9,10
 405 -2 405 -2 380 -2 c 0,11,12
 274 -2 274 -2 193 73 c 2,13,-1
 191 75 l 1,14,15
 164 220 164 220 163 400 c 0,16,17
 163 623 163 623 204 900 c 0,18,19
 218 993 218 993 218 1068 c 0,20,21
 218 1186 218 1186 182 1252 c 0,22,23
 140 1330 140 1330 49 1330 c 0,24,25
 19 1330 19 1330 -17 1321 c 2,26,-1
 -90 1304 l 1,27,-1
 -25 1340 l 2,28,29
 -3 1352 -3 1352 97 1422 c 0,30,31
 200 1492 200 1492 298 1492 c 2,32,-1
 310 1492 l 1,33,-1
 312 1491 l 2,34,35
 473 1420 473 1420 473 1154 c 0,36,37
 473 1051 473 1051 451 919 c 0,38,39
 407 674 407 674 407 483 c 0,40,41
 408 313 408 313 442 185 c 1,0,1
EndSplineSet
EndChar

StartChar: M
Encoding: 77 77 12
Width: 1886
VWidth: 1917
Flags: W
HStem: 50 121<437.98 545.047 1000.8 1129.42> 63 44<1354.1 1400.77> 943 159<1329.94 1477.8> 1117 20G<582.5 859.5>
VStem: 11 237<360.105 638.043> 809 240<185.587 795.64> 827 247<444.477 896.249> 1642 252<458.282 759.824>
LayerCount: 2
Fore
SplineSet
626 154 m 2,0,1
 528 56 528 56 377 56 c 0,2,3
 361 56 361 56 345 57 c 0,4,5
 173 68 173 68 87 173 c 0,6,-1
 86 174 l 1,7,8
 11 306 11 306 11 438 c 0,9,10
 11 624 11 624 161 807 c 0,11,12
 417 1120 417 1120 748 1137 c 2,13,14
 971 1137 971 1137 1052 944 c 1,15,16
 1182 997 1182 997 1264 1031 c 0,17,18
 1325 1056 1325 1056 1390 1079 c 132,-1,19
 1455 1102 1455 1102 1519 1102 c 0,20,21
 1571 1102 1571 1102 1622 1093 c 0,22,-1
 1623 1093 l 1,23,24
 1782 1048 1782 1048 1854 869 c 0,25,26
 1894 771 1894 771 1894 671 c 0,27,28
 1894 584 1894 584 1865 493 c 1,29,30
 1822 380 1822 380 1727 298 c 0,31,32
 1637 220 1637 220 1528 157 c 2,33,-1
 1461 118 l 2,34,35
 1399 82 1399 82 1357 63 c 1,36,37
 1354 80 1354 80 1354 83 c 0,38,39
 1354 96 1354 96 1365 101 c 0,40,41
 1377 106 1377 106 1381 107 c 0,42,43
 1397 110 1397 110 1401 112 c 0,44,45
 1427 126 1427 126 1465 147 c 0,46,47
 1503 169 1503 169 1507 173 c 0,48,49
 1642 326 1642 326 1642 544 c 0,50,51
 1642 818 1642 818 1435 927 c 1,52,53
 1385 943 1385 943 1326 943 c 0,54,55
 1295 943 1295 943 1262 938 c 0,56,57
 1167 925 1167 925 1071 876 c 1,58,59
 1074 828 1074 828 1074 780 c 0,60,61
 1074 776 1074 776 1074 772 c 0,62,63
 1074 641 1074 641 1057 511 c 0,64,65
 1049 450 1049 450 1049 398 c 0,66,67
 1049 283 1049 283 1084 185 c 1,68,69
 1103 171 1103 171 1128 171 c 0,70,71
 1135 171 1135 171 1142 172 c 0,72,73
 1180 178 1180 178 1209 188 c 2,74,-1
 1243 201 l 1,75,-1
 1221 173 l 2,76,77
 1170 110 1170 110 1092 76 c 0,78,79
 1032 50 1032 50 942 50 c 0,80,81
 917 50 917 50 885 53 c 1,82,-1
 883 58 l 2,83,84
 809 222 809 222 809 442 c 0,85,86
 809 521 809 521 822 635 c 0,87,88
 827 679 827 679 827 718 c 0,89,90
 827 832 827 832 779 903 c 0,91,92
 757 936 757 936 582 956 c 1,93,94
 396 925 396 925 314 803 c 0,95,96
 248 704 248 704 248 544 c 2,97,-1
 248 522 l 1,98,99
 251 407 251 407 328 305 c 0,100,101
 420 184 420 184 620 171 c 2,102,-1
 642 170 l 1,103,-1
 626 154 l 2,0,1
EndSplineSet
EndChar

StartChar: N
Encoding: 78 78 13
Width: 1220
VWidth: 1870
Flags: W
HStem: 25 118<1195.42 1276.7> 906 172<-13.5 191.5>
VStem: 96 172<-35.125 630.896> 1015 235<393.707 935.484>
LayerCount: 2
Fore
SplineSet
1226 1082 m 1,0,1
 1250 917 1250 917 1250 711 c 0,2,3
 1250 673 1250 673 1249 634 c 0,4,5
 1244 383 1244 383 1124 265 c 1,6,7
 1166 201 1166 201 1233 162 c 0,8,9
 1265 143 1265 143 1300 143 c 0,10,11
 1341 143 1341 143 1387 170 c 1,12,-1
 1399 153 l 1,13,14
 1253 25 1253 25 1112 25 c 2,15,-1
 1110 25 l 2,16,17
 951 25 951 25 800 185 c 0,18,19
 528 474 528 474 316 650 c 1,20,21
 276 447 276 447 268 211 c 0,22,23
 261 -40 261 -40 139 -178 c 2,24,-1
 123 -195 l 1,25,-1
 121 -172 l 2,26,27
 97 105 97 105 96 356 c 2,28,-1
 96 390 l 2,29,30
 96 622 96 622 103 858 c 1,31,32
 63 906 63 906 -5 906 c 0,33,34
 -22 906 -22 906 -40 903 c 0,35,36
 -138 888 -138 888 -200 852 c 2,37,-1
 -267 813 l 1,38,-1
 -212 868 l 2,39,40
 -122 958 -122 958 8 1036 c 0,41,42
 81 1078 81 1078 158 1078 c 0,43,44
 225 1078 225 1078 298 1046 c 1,45,46
 478 927 478 927 665 685 c 0,47,48
 842 457 842 457 1012 370 c 1,49,-1
 1012 406 l 2,50,51
 1012 616 1012 616 1015 691 c 0,52,53
 1015 832 1015 832 997 940 c 1,54,-1
 986 940 l 2,55,56
 950 940 950 940 922 935 c 0,57,58
 889 929 889 929 870 907 c 2,59,-1
 819 850 l 1,60,-1
 853 918 l 2,61,62
 882 976 882 976 999 1037 c 0,63,64
 1094 1086 1094 1086 1179 1086 c 0,65,66
 1199 1086 1199 1086 1226 1082 c 1,0,1
EndSplineSet
EndChar

StartChar: O
Encoding: 79 79 14
Width: 1200
VWidth: 1584
Flags: W
HStem: 1 161<360 638.988> 958 114<488.013 752.155>
VStem: 11 222<365.414 651.713> 966 227<509.144 761.746>
LayerCount: 2
Fore
SplineSet
1168 911 m 1,0,1
 1193 818 1193 818 1193 732 c 0,2,3
 1193 478 1193 478 982 267 c 0,4,5
 711 1 711 1 377 1 c 0,6,7
 343 1 343 1 333 2 c 0,8,9
 82 51 82 51 26 305 c 0,10,11
 11 375 11 375 11 441 c 0,12,13
 11 611 11 611 115 753 c 0,14,-1
 116 754 l 1,15,16
 164 803 164 803 327 921 c 0,17,18
 493 1040 493 1040 566 1072 c 0,19,-1
 567 1072 l 1,20,21
 664 1105 664 1105 755 1105 c 0,22,23
 830 1105 830 1105 902 1084 c 0,24,25
 1056 1036 1056 1036 1168 911 c 1,0,1
332 283 m 0,26,27
 444 162 444 162 616 162 c 0,28,29
 628 162 628 162 640 163 c 0,30,31
 902 199 902 199 954 455 c 0,32,33
 966 514 966 514 966 569 c 0,34,35
 966 751 966 751 833 880 c 1,36,37
 725 958 725 958 614 958 c 0,38,39
 552 958 552 958 488 933 c 0,40,41
 311 863 311 863 238 693 c 1,42,43
 233 622 233 622 233 597 c 0,44,45
 234 388 234 388 332 283 c 0,26,27
EndSplineSet
EndChar

StartChar: P
Encoding: 80 80 15
Width: 1142
VWidth: 1740
Flags: W
HStem: -363 21G<167.739 184> 904 182<643.359 753.642>
VStem: 189 163<-171.681 579.632> 921 220<497.541 718.773>
LayerCount: 2
Fore
SplineSet
389 1005 m 0,0,1
 406 974 406 974 406 933 c 0,2,3
 406 906 406 906 398 876 c 1,4,5
 509 921 509 921 582 995 c 0,6,7
 665 1080 665 1080 812 1086 c 0,8,-1
 813 1086 l 1,9,10
 976 1075 976 1075 1062 947 c 0,11,12
 1141 829 1141 829 1141 684 c 0,13,14
 1141 682 1141 682 1141 680 c 2,15,-1
 1141 657 l 1,16,17
 1113 439 1113 439 943 287 c 0,18,19
 768 135 768 135 663 85 c 2,20,-1
 581 46 l 1,21,-1
 652 102 l 2,22,23
 753 181 753 181 842 295 c 0,24,25
 921 397 921 397 921 548 c 0,26,27
 921 561 921 561 921 576 c 0,28,29
 876 836 876 836 672 894 c 1,30,31
 639 904 639 904 609 904 c 0,32,33
 462 904 462 904 393 656 c 1,34,35
 361 387 361 387 352 82 c 0,36,37
 343 -228 343 -228 184 -349 c 2,38,-1
 166 -363 l 1,39,-1
 168 -340 l 2,40,41
 189 -53 189 -53 189 321 c 128,-1,42
 189 695 189 695 102 953 c 1,43,44
 80 960 80 960 71 960 c 0,45,46
 56 960 56 960 44 950 c 0,47,48
 14 925 14 925 -37 916 c 2,49,-1
 -68 910 l 1,50,-1
 -46 933 l 2,51,52
 17 997 17 997 93 1047.5 c 128,-1,53
 169 1098 169 1098 301 1103 c 1,54,-1
 304 1101 l 2,55,56
 359 1061 359 1061 389 1005 c 0,0,1
EndSplineSet
EndChar

StartChar: Q
Encoding: 81 81 16
Width: 1081
VWidth: 1739
Flags: W
HStem: 87 164<322 638.5> 958 177<481.921 779.593>
VStem: 28 196<436.86 660.167> 768 223<313.804 935.879> 798 198<-25.5352 234>
LayerCount: 2
Fore
SplineSet
516 115 m 0,0,1
 447 87 447 87 377 87 c 0,2,3
 267 87 267 87 162 156 c 1,4,5
 28 289 28 289 28 458 c 0,6,7
 28 580 28 580 99 722 c 0,8,9
 267 1056 267 1056 617 1133 c 1,10,11
 644 1135 644 1135 668 1135 c 0,12,13
 761 1135 761 1135 832 1111 c 0,14,15
 885 1093 885 1093 955 1093 c 0,16,17
 996 1093 996 1093 1045 1100 c 2,18,-1
 1059 1102 l 1,19,-1
 1056 1088 l 2,20,21
 992 822 992 822 991 622 c 0,22,23
 991 575 991 575 995 531 c 0,24,25
 996 519 996 519 996 507 c 0,26,27
 998 186 998 186 1023 -75 c 1,28,29
 906 -200 906 -200 783 -313 c 2,30,-1
 754 -339 l 1,31,-1
 766 -303 l 2,32,33
 798 -204 798 -204 798 -6 c 0,34,35
 798 0 798 0 798 6 c 0,36,37
 798 126 798 126 785 234 c 1,38,39
 680 181 680 181 516 115 c 0,0,1
782 921 m 1,40,41
 673 958 673 958 579 958 c 0,42,43
 463 958 463 958 368 901 c 0,44,45
 224 814 224 814 224 594 c 0,46,47
 224 554 224 554 229 510 c 1,48,49
 285 363 285 363 451 284 c 0,50,51
 520 251 520 251 591 251 c 0,52,53
 686 251 686 251 782 312 c 1,54,55
 768 369 768 369 768 521 c 128,-1,56
 768 673 768 673 782 921 c 1,40,41
EndSplineSet
EndChar

StartChar: R
Encoding: 82 82 17
Width: 1428
VWidth: 1740
Flags: W
HStem: 31 146<1045.48 1254.29> 1099 20G<325.5 395.5 869.5 959>
VStem: 220 235<-17.8828 880.245>
LayerCount: 2
Fore
SplineSet
1016 240 m 0,0,1
 1105 177 1105 177 1210 177 c 0,2,3
 1305 177 1305 177 1412 231 c 2,4,-1
 1452 251 l 1,5,-1
 1424 216 l 2,6,7
 1278 31 1278 31 1060 31 c 2,8,-1
 1053 31 l 2,9,10
 993 31 993 31 927 46 c 0,11,12
 620 115 620 115 503 358 c 2,13,-1
 501 362 l 1,14,-1
 503 367 l 2,15,16
 557 464 557 464 735 580 c 0,17,18
 856 659 856 659 876 812 c 0,19,20
 876 817 876 817 875 832 c 0,21,22
 854 912 854 912 799 948 c 0,23,24
 755 976 755 976 687 976 c 2,25,-1
 679 976 l 1,26,27
 520 972 520 972 451 816 c 1,28,29
 455 691 455 691 455 569 c 0,30,31
 455 360 455 360 444 162 c 0,32,33
 426 -158 426 -158 195 -272 c 2,34,-1
 178 -280 l 1,35,-1
 181 -262 l 2,36,37
 215 20 215 20 219 306 c 0,38,39
 220 371 220 371 220 435 c 0,40,41
 220 671 220 671 200 887 c 1,42,43
 184 924 184 924 135 929 c 2,44,-1
 114 931 l 1,45,46
 74 931 74 931 39 915 c 2,47,-1
 5 901 l 1,48,-1
 26 930 l 2,49,50
 105 1039 105 1039 272 1104 c 0,51,52
 310 1119 310 1119 341 1119 c 0,53,54
 450 1119 450 1119 466 947 c 1,55,56
 576 1053 576 1053 768 1133 c 0,57,58
 839 1162 839 1162 900 1162 c 0,59,60
 1018 1162 1018 1162 1091 1047 c 1,61,62
 1109 994 1109 994 1109 961 c 0,63,64
 1109 954 1109 954 1108 948 c 0,65,66
 1086 775 1086 775 1010 705 c 0,67,68
 991 687 991 687 753 485 c 1,69,70
 832 371 832 371 1016 240 c 0,0,1
EndSplineSet
EndChar

StartChar: S
Encoding: 83 83 18
Width: 1003
VWidth: 1538
Flags: W
HStem: 1022 151<564.617 741.938>
VStem: 216 205<699.777 891.172> 352 271<222.159 519.19> 391 231<346.094 519.19>
LayerCount: 2
Fore
SplineSet
453 711 m 0,0,1
 508 665 508 665 602 522 c 1,2,3
 622 432 622 432 622 352 c 0,4,5
 622 349 622 349 623 346 c 0,6,7
 623 268 623 268 608 196 c 0,8,9
 576 32 576 32 457 -4 c 1,10,11
 445 -6 445 -6 422 -6 c 0,12,13
 214 -6 214 -6 107 148 c 0,14,15
 10 286 10 286 1 386 c 1,16,17
 3 483 3 483 97 538 c 0,18,19
 132 558 132 558 240 617 c 1,20,-1
 235 595 l 2,21,22
 220 535 220 535 201 523 c 0,23,24
 178 509 178 509 163 465 c 1,25,-1
 289 243 l 1,26,-1
 391 220 l 1,27,28
 383 289 383 289 367.5 369 c 128,-1,29
 352 449 352 449 352 498 c 2,30,-1
 352 506 l 1,31,32
 354 524 354 524 354 533.5 c 128,-1,33
 354 543 354 543 353 548 c 0,34,35
 292 581 292 581 257 618 c 0,36,37
 230 648 230 648 216 739 c 0,38,-1
 216 740 l 1,39,40
 217 953 217 953 515 1105 c 0,41,42
 649 1173 649 1173 765 1173 c 0,43,44
 900 1173 900 1173 1005 1073 c 2,45,-1
 1008 1070 l 1,46,-1
 1008 1066 l 2,47,48
 1007 989 1007 989 954 960 c 0,49,50
 909 935 909 935 861 899 c 1,51,-1
 855 905 l 2,52,53
 777 982 777 982 619 1015 c 0,54,55
 587 1022 587 1022 560 1022 c 2,56,-1
 558 1022 l 2,57,58
 460 1022 460 1022 431 926 c 1,59,60
 421 864 421 864 421 819 c 0,61,62
 421 737 421 737 453 711 c 0,0,1
EndSplineSet
EndChar

StartChar: T
Encoding: 84 84 19
Width: 1196
VWidth: 1652
Flags: W
HStem: -3 167<561.777 843.016> 1000 172<197.816 580>
VStem: 42 288<361.798 611.139>
LayerCount: 2
Fore
SplineSet
603 893 m 0,0,1
 331 778 331 778 330 566 c 0,2,3
 330 553 330 553 331 541 c 2,4,-1
 338 439 l 1,5,6
 407 223 407 223 687 174 c 0,7,8
 743 164 743 164 796 164 c 0,9,10
 1007 164 1007 164 1161 318 c 2,11,-1
 1173 330 l 1,12,-1
 1178 314 l 2,13,14
 1180 306 1180 306 1180 297 c 0,15,16
 1180 235 1180 235 1064 156 c 0,17,18
 927 67 927 67 821 34 c 0,19,20
 706 -3 706 -3 590 -3 c 0,21,22
 448 -3 448 -3 305 52 c 0,23,24
 51 152 51 152 42 418 c 0,25,-1
 42 419 l 1,26,27
 77 704 77 704 219 789 c 0,28,29
 457 922 457 922 580 1000 c 1,30,31
 406 1001 406 1001 274 1014 c 0,32,33
 251 1016 251 1016 236 1016 c 128,-1,34
 221 1016 221 1016 213 1016 c 1,35,36
 91 1016 91 1016 -14 966 c 2,37,-1
 -24 961 l 1,38,-1
 -27 972 l 2,39,40
 -29 977 -29 977 -29 980 c 0,41,42
 -29 991 -29 991 -22 996.5 c 128,-1,43
 -15 1002 -15 1002 -6 1003 c 1,44,45
 154 1172 154 1172 512 1172 c 2,46,-1
 526 1172 l 1,47,-1
 1239 1163 l 1,48,-1
 1190 1145 l 2,49,50
 1105 1113 1105 1113 603 893 c 0,0,1
EndSplineSet
EndChar

StartChar: U
Encoding: 85 85 20
Width: 1356
VWidth: 1918
Flags: W
HStem: 6 148<420.269 563.973> 1116 20G<235.5 317>
VStem: 43 238<262.02 619.233> 130 250<651.678 938.222> 928 259<436.473 951.562> 928 235<312.197 951.562>
LayerCount: 2
Fore
SplineSet
943 90 m 0,0,1
 926 129 926 129 926 184 c 0,2,3
 926 193 926 193 926 203 c 1,4,5
 740 98 740 98 476 24 c 0,6,7
 409 6 409 6 351 6 c 2,8,-1
 344 6 l 2,9,10
 156 6 156 6 46 181 c 2,11,-1
 44 183 l 1,12,13
 43 211 43 211 43 236 c 0,14,15
 43 481 43 481 114 741 c 0,16,17
 130 797 130 797 130 838 c 0,18,19
 130 909 130 909 86 940 c 0,20,21
 50 965 50 965 -16 965 c 0,22,23
 -55 965 -55 965 -104 956 c 2,24,-1
 -137 950 l 1,25,-1
 -113 973 l 2,26,27
 -39 1043 -39 1043 62 1086 c 0,28,29
 164 1129 164 1129 307 1136 c 2,30,-1
 314 1136 l 1,31,-1
 317 1131 l 2,32,33
 380 1020 380 1020 380 889 c 128,-1,34
 380 758 380 758 321 610 c 0,35,36
 281 508 281 508 281 423 c 0,37,38
 281 265 281 265 418 160 c 1,39,40
 491 154 491 154 515 154 c 0,41,42
 650 154 650 154 738 199 c 0,43,44
 856 259 856 259 928 365 c 1,45,-1
 928 927 l 1,46,47
 902 955 902 955 860 955 c 2,48,-1
 849 955 l 1,49,50
 795 951 795 951 742 937 c 2,51,-1
 695 925 l 1,52,-1
 733 955 l 2,53,54
 811 1016 811 1016 916 1066 c 0,55,56
 980 1097 980 1097 1054 1097 c 0,57,58
 1104 1097 1104 1097 1165 1081 c 1,59,60
 1187 956 1187 956 1187 829 c 0,61,62
 1187 823 1187 823 1187 818 c 2,63,-1
 1187 804 l 2,64,65
 1187 704 1187 704 1175 608.5 c 128,-1,66
 1163 513 1163 513 1163 434 c 0,67,68
 1163 285 1163 285 1200 158 c 1,69,70
 1245 143 1245 143 1290 143 c 0,71,72
 1318 143 1318 143 1349 149 c 0,73,74
 1430 164 1430 164 1469 209 c 1,75,-1
 1484 197 l 1,76,77
 1433 130 1433 130 1317 64 c 0,78,79
 1200 -2 1200 -2 1009 -2 c 2,80,-1
 1005 -2 l 1,81,82
 965 42 965 42 943 90 c 0,0,1
EndSplineSet
EndChar

StartChar: X
Encoding: 88 88 21
Width: 1448
VWidth: 1740
Flags: W
HStem: 968 151<111.5 471> 1008 168<1028 1333.51>
LayerCount: 2
Fore
SplineSet
1251 959 m 2,0,1
 1152 1008 1152 1008 1052 1008 c 0,2,3
 1004 1008 1004 1008 957 997 c 0,4,5
 814 964 814 964 725 877 c 1,6,7
 872 672 872 672 1017 405 c 0,8,9
 1140 181 1140 181 1343 181 c 0,10,11
 1380 181 1380 181 1419 189 c 2,12,-1
 1439 193 l 1,13,-1
 1430 175 l 2,14,15
 1396 107 1396 107 1282 50 c 0,16,17
 1184 2 1184 2 1055 2 c 0,18,19
 1034 2 1034 2 1007 3 c 1,20,21
 868 150 868 150 759.5 315 c 128,-1,22
 651 480 651 480 541 642 c 1,23,24
 306 463 306 463 253 104 c 2,25,-1
 252 97 l 1,26,-1
 246 95 l 2,27,28
 192 83 192 83 153 52.5 c 128,-1,29
 114 22 114 22 61 4 c 2,30,-1
 45 -2 l 1,31,-1
 48 15 l 2,32,33
 94 251 94 251 209 417 c 0,34,35
 325 583 325 583 455 731 c 1,36,37
 384 834 384 834 257 926 c 0,38,39
 201 967 201 967 145 968 c 0,40,41
 78 968 78 968 11 906 c 2,42,-1
 -28 870 l 1,43,-1
 -5 917 l 2,44,45
 85 1103 85 1103 331 1118 c 0,46,47
 346 1119 346 1119 360 1119 c 0,48,49
 582 1119 582 1119 679 910 c 1,50,51
 836 1008 836 1008 1025 1117 c 0,52,53
 1127 1176 1127 1176 1241 1176 c 0,54,55
 1346 1176 1346 1176 1461 1124 c 2,56,-1
 1470 1120 l 1,57,-1
 1466 1111 l 2,58,59
 1437 1047 1437 1047 1374 1019 c 0,60,61
 1315 993 1315 993 1256 957 c 1,62,-1
 1251 959 l 2,0,1
EndSplineSet
EndChar

StartChar: Y
Encoding: 89 89 22
Width: 1304
VWidth: 1862
Flags: W
HStem: 941 105<126.258 391.5> 1229 140<622 844.5>
VStem: 1096 205<527.937 903.061>
LayerCount: 2
Fore
SplineSet
687.5 1333 m 128,-1,1
 752 1369 752 1369 819 1369 c 0,2,3
 870 1369 870 1369 908.5 1334 c 128,-1,4
 947 1299 947 1299 948 1222 c 2,5,-1
 948 1219 l 1,6,-1
 946 1216 l 2,7,8
 918 1177 918 1177 868 1157 c 0,9,10
 825 1139 825 1139 796 1104 c 2,11,-1
 788 1095 l 1,12,-1
 780 1103 l 2,13,14
 739 1144 739 1144 711 1192 c 0,15,16
 689 1229 689 1229 627 1229 c 0,17,18
 617 1229 617 1229 588 1226 c 1,19,-1
 596 1242 l 2,20,0
 623 1297 623 1297 687.5 1333 c 128,-1,1
1226 1074 m 0,21,22
 1237 1064 1237 1064 1248 1074 c 2,23,-1
 1256 1074 l 1,24,-1
 1258 1067 l 2,25,26
 1301 917 1301 917 1301 782 c 0,27,28
 1301 475 1301 475 1077 250 c 0,29,30
 751 -71 751 -71 360 -207 c 2,31,-1
 300 -228 l 1,32,-1
 351 -190 l 2,33,34
 451 -114 451 -114 572 -67 c 128,-1,35
 693 -20 693 -20 760 79 c 1,36,37
 665 346 665 346 525 569 c 128,-1,38
 385 792 385 792 171 940 c 1,39,40
 157 941 157 941 152 941 c 0,41,42
 127 941 127 941 107.5 932 c 128,-1,43
 88 923 88 923 58 923 c 0,44,45
 44 923 44 923 29 925 c 2,46,-1
 3 929 l 1,47,-1
 25 943 l 2,48,49
 177 1046 177 1046 307 1046 c 0,50,51
 476 1046 476 1046 606 880 c 0,52,53
 829 595 829 595 942 305 c 1,54,55
 1052 402 1052 402 1087 624 c 0,56,57
 1096 676 1096 676 1096 722 c 0,58,59
 1096 881 1096 881 996 976 c 2,60,-1
 985 986 l 1,61,62
 1051 1017 1051 1017 1101 1044.5 c 128,-1,63
 1151 1072 1151 1072 1226 1074 c 0,21,22
EndSplineSet
EndChar

StartChar: a
Encoding: 97 97 23
Width: 1296
VWidth: 1822
Flags: W
HStem: 979 134<247.478 355.236>
VStem: 130 196<122 513.391>
LayerCount: 2
Fore
SplineSet
169 3 m 1,0,-1
 167 10 l 2,1,2
 130 134 130 134 130 256.5 c 128,-1,3
 130 379 130 379 169 499 c 0,4,5
 246 732 246 732 481 789 c 1,6,7
 428 887 428 887 342 943 c 0,8,9
 286 979 286 979 205 979 c 2,10,-1
 199 979 l 2,11,12
 151 979 151 979 92 965 c 2,13,-1
 6 945 l 1,14,-1
 85 984 l 2,15,16
 175 1028 175 1028 255 1073 c 0,17,18
 328 1113 328 1113 442 1113 c 0,19,20
 485 1113 485 1113 536 1107 c 1,21,22
 777 906 777 906 948 640 c 128,-1,23
 1119 374 1119 374 1303 127 c 1,24,25
 1352 115 1352 115 1372 103 c 0,26,27
 1380 98 1380 98 1388 98 c 0,28,29
 1408 98 1408 98 1433 111 c 1,30,-1
 1443 93 l 1,31,32
 1374 51 1374 51 1285.5 14.5 c 128,-1,33
 1197 -22 1197 -22 1082 -31 c 1,34,35
 935 103 935 103 828 272 c 0,36,37
 731 427 731 427 645 591 c 1,38,39
 610 303 610 303 559 187 c 0,40,41
 478 3 478 3 186 3 c 2,42,-1
 169 3 l 1,0,-1
463 383 m 0,43,44
 503 490 503 490 503 515 c 2,45,-1
 503 519 l 2,46,47
 503 632 503 632 472 671 c 1,48,49
 350 603 350 603 335 470 c 0,50,51
 328 405 328 405 327 345 c 0,52,53
 326 234 326 234 326 122 c 1,54,55
 383 170 383 170 463 383 c 0,43,44
EndSplineSet
Validated: 1
EndChar

StartChar: b
Encoding: 98 98 24
Width: 1041
VWidth: 1547
Flags: W
HStem: 4 125<391 570.404> 611 64<394 415> 1012 106<16.4146 69.3774>
VStem: 113 277<139.677 611> 129 263<139.677 611 675 970.865> 786 248<352 533.635>
LayerCount: 2
Fore
SplineSet
920 720 m 1,0,1
 1034 607 1034 607 1034 492 c 0,2,3
 1034 347 1034 347 850 204 c 0,4,5
 589 4 589 4 316 4 c 0,6,7
 241 4 241 4 158 21 c 1,8,-1
 156 27 l 2,9,10
 113 164 113 164 113 338 c 0,11,12
 113 342 113 342 113 346 c 2,13,-1
 113 354 l 2,14,15
 113 440 113 440 122 535 c 0,16,17
 129 602 129 602 129 666 c 2,18,-1
 129 681 l 2,19,20
 129 875 129 875 70 1010 c 1,21,22
 50 1012 50 1012 40 1012 c 2,23,-1
 39 1012 l 1,24,25
 7 1012 7 1012 -15 1003 c 0,26,27
 -47 992 -47 992 -89 992 c 0,28,29
 -101 992 -101 992 -145 995 c 1,30,-1
 -119 1011 l 2,31,32
 -28 1067 -28 1067 129 1107 c 0,33,34
 175 1118 175 1118 214 1118 c 0,35,36
 315 1118 315 1118 383 1049 c 1,37,38
 515 1138 515 1138 703 1160 c 0,39,40
 723 1162 723 1162 744 1162 c 0,41,42
 832 1162 832 1162 878 1113 c 0,43,44
 914 1074 914 1074 923 1004 c 0,45,-1
 923 1002 l 1,46,47
 921 923 921 923 843 858 c 0,48,49
 786 810 786 810 724 771 c 1,50,51
 765 766 765 766 813 760 c 0,52,53
 875 751 875 751 919 721 c 0,54,-1
 920 720 l 1,0,1
661 910 m 0,55,56
 660 968 660 968 621 989 c 0,57,58
 578 1013 578 1013 530 1013 c 0,59,60
 472 1013 472 1013 392 992 c 1,61,62
 392 872 392 872 393 826 c 0,63,64
 394 748 394 748 394 675 c 1,65,-1
 416 681 l 2,66,67
 638 742 638 742 660 898 c 0,68,69
 661 905 661 905 661 910 c 0,55,56
415 615 m 2,70,-1
 392 611 l 1,71,72
 390 394 390 394 390 320 c 128,-1,73
 390 246 390 246 391 143 c 1,74,75
 461 129 461 129 520 129 c 0,76,77
 622 129 622 129 686 172 c 0,78,79
 763 224 763 224 782 345 c 0,80,81
 786 364 l 0,82,83
 786 626 786 626 531 626 c 0,84,85
 478 626 478 626 415 615 c 2,70,-1
EndSplineSet
Validated: 2049
EndChar

StartChar: c
Encoding: 99 99 25
Width: 1130
VWidth: 1543
Flags: W
HStem: -1 129<598.01 828.047> 991 185<542.266 754.977>
VStem: 13 238<464.75 696.136>
LayerCount: 2
Fore
SplineSet
592 991 m 1,0,-1
 581 991 l 2,1,2
 422 991 422 991 328 888 c 1,3,4
 256 718 256 718 251 650 c 1,5,6
 251 462 251 462 422 295 c 0,7,8
 594 128 594 128 806 128 c 0,9,10
 954 128 954 128 1119 211 c 1,11,-1
 1129 194 l 1,12,13
 867 -1 867 -1 525 -1 c 0,14,15
 506 -1 506 -1 487 0 c 0,16,17
 122 11 122 11 18 385 c 1,18,19
 13 426 13 426 13 466 c 0,20,21
 13 739 13 739 230 927 c 0,22,23
 496 1156 496 1156 708 1175 c 0,24,25
 720 1176 720 1176 760 1176 c 0,26,27
 979 1176 979 1176 1011 1054 c 0,28,29
 1016 1033 1016 1033 1015 1022 c 0,30,31
 1015 1020 1015 1020 1015 1017 c 0,32,33
 1015 907 1015 907 827 859 c 2,34,-1
 817 857 l 1,35,-1
 814 866 l 2,36,37
 774 987 774 987 592 991 c 1,0,-1
EndSplineSet
Validated: 1
EndChar

StartChar: d
Encoding: 100 100 26
Width: 1383
VWidth: 1889
Flags: W
HStem: -6 145<448 745.797>
VStem: 10 266<487.047 729.084> 226 254<1398.05 1495.4> 1113 256<431.743 766.995>
LayerCount: 2
Fore
SplineSet
480 1581 m 1,0,-1
 480 1580 l 2,1,2
 480 1236 480 1236 944 1145 c 0,3,4
 1181 1098 1181 1098 1286 943 c 0,5,6
 1369 819 1369 819 1369 628 c 0,7,8
 1369 576 1369 576 1363 518 c 1,9,10
 1354 484 1354 484 1329 440 c 0,11,12
 1303 394 1303 394 1260 350 c 0,13,14
 1175 265 1175 265 1041 190 c 0,15,16
 906 115 906 115 772 49 c 1,17,18
 644 -6 644 -6 527 -6 c 0,19,20
 369 -6 369 -6 234 92 c 0,21,22
 10 255 10 255 10 569 c 0,23,24
 10 589 10 589 11 600 c 0,25,26
 29 737 29 737 174 898 c 0,27,28
 263 997 263 997 352 1096 c 1,29,30
 226 1167 226 1167 226 1333 c 0,31,32
 226 1389 226 1389 250 1451 c 0,33,34
 345 1697 345 1697 644 1747 c 2,35,-1
 648 1747 l 1,36,-1
 651 1746 l 2,37,38
 666 1737 666 1737 666 1725 c 0,39,-1
 666 1724 l 2,40,41
 666 1712 666 1712 648 1699 c 128,-1,42
 630 1686 630 1686 591 1671 c 0,43,44
 503 1636 503 1636 480 1581 c 1,0,-1
508 1061 m 1,45,46
 288 948 288 948 276 739 c 0,47,48
 276 735 276 735 276 728 c 0,49,50
 276 706 276 706 281 661 c 0,51,52
 318 327 318 327 575 169 c 1,53,-1
 579 168 l 1,54,55
 625 149 625 149 681 142 c 0,56,57
 703 139 703 139 731 139 c 128,-1,58
 759 139 759 139 796 146 c 0,59,60
 870 167 870 167 943 228 c 0,61,62
 1015 289 1015 289 1070 368 c 1,63,64
 1113 463 1113 463 1113 571 c 2,65,-1
 1113 584 l 2,66,67
 1113 609 1113 609 1110 636 c 0,68,69
 1094 780 1094 780 976 888 c 1,70,71
 901 949 901 949 759 1004 c 0,72,73
 618 1057 618 1057 529 1062 c 1,74,-1
 508 1061 l 1,45,46
EndSplineSet
Validated: 1
EndChar

StartChar: e
Encoding: 101 101 27
Width: 1115
VWidth: 1540
Flags: W
HStem: 10 150<578.8 835.084> 740 48<826.598 974.316> 1039 145<483.687 751>
VStem: 3 267<454.282 623.815> 629 435<808 954>
LayerCount: 2
Fore
SplineSet
1036 864 m 2,0,1
 1064 843 1064 843 1064 822 c 0,2,3
 1064 794 1064 794 1014 773 c 0,4,5
 939 741 939 741 919 740 c 1,6,7
 897 732 897 732 687 685 c 0,8,9
 478 638 478 638 270 623 c 1,10,11
 302 339 302 339 546 219 c 0,12,13
 666 160 666 160 797 160 c 0,14,15
 936 160 936 160 1083 228 c 2,16,-1
 1150 259 l 1,17,-1
 1093 211 l 2,18,19
 855 10 855 10 595 10 c 0,20,21
 484 10 484 10 369 48 c 0,22,23
 3 171 3 171 3 605 c 2,24,-1
 3 615 l 1,25,26
 12 709 12 709 69 804 c 0,27,28
 148 936 148 936 181 964 c 0,29,30
 310 1072 310 1072 526 1158 c 0,31,32
 591 1184 591 1184 695 1184 c 0,33,34
 807 1184 807 1184 886 1102 c 2,35,-1
 889 1099 l 1,36,-1
 888 1094 l 2,37,38
 875 977 875 977 782 891 c 0,39,40
 728 841 728 841 673 791 c 1,41,42
 840 788 l 2,43,-1
 870 788 l 1,44,45
 1006 801 1006 801 1020 858 c 2,46,-1
 1024 873 l 1,47,-1
 1036 864 l 2,0,1
512 785 m 0,48,49
 628 830 628 830 629 937 c 0,50,51
 629 971 629 971 617 1011 c 1,52,53
 553 1039 553 1039 501 1039 c 0,54,55
 420 1039 420 1039 362 971 c 0,56,57
 269 866 269 866 250 710 c 1,58,59
 359 726 359 726 512 785 c 0,48,49
EndSplineSet
Validated: 1
EndChar

StartChar: f
Encoding: 102 102 28
Width: 1172
VWidth: 1843
Flags: W
HStem: 60 165<584 903.3> 1218 20G<379 469.5 988.5 1071.5>
VStem: 319 265<-131.844 60 228 828.916> 341 243<228 392.485 398.548 805.249>
LayerCount: 2
Fore
SplineSet
212 140 m 0,0,1
 281 175 281 175 331 207 c 1,2,3
 326 299 326 299 326 395.5 c 128,-1,4
 326 492 326 492 339 723 c 0,5,6
 341 755 341 755 341 789 c 2,7,-1
 341 793 l 2,8,9
 341 1007 341 1007 221 1104 c 1,10,11
 210 1105 210 1105 200 1105 c 2,12,-1
 196 1105 l 2,13,14
 154 1105 154 1105 126 1087 c 0,15,16
 87 1062 87 1062 39 1048 c 2,17,-1
 8 1040 l 1,18,-1
 29 1064 l 2,19,20
 149 1205 149 1205 340 1234 c 0,21,22
 367 1238 367 1238 391 1238 c 2,23,-1
 393 1238 l 2,24,25
 546 1238 546 1238 600 1054 c 1,26,27
 720 1145 720 1145 890 1234 c 0,28,29
 959 1270 959 1270 1018 1270 c 2,30,-1
 1020 1270 l 2,31,32
 1123 1270 1123 1270 1199 1157 c 2,33,-1
 1203 1151 l 1,34,-1
 1198 1145 l 2,35,36
 1157 1098 1157 1098 1103.5 1067.5 c 128,-1,37
 1050 1037 1050 1037 1008 996 c 2,38,-1
 997 985 l 1,39,-1
 991 999 l 2,40,41
 952 1087 952 1087 865 1122 c 1,42,43
 638 1052 638 1052 611 789 c 0,44,45
 584 521 584 521 584 228 c 1,46,47
 630 225 630 225 696.5 225 c 128,-1,48
 763 225 763 225 864 233 c 0,49,50
 1022 246 1022 246 1170 267 c 2,51,-1
 1204 272 l 1,52,-1
 1178 250 l 2,53,54
 1073 160 1073 160 927 111 c 0,55,56
 777 62 777 62 584 60 c 1,57,58
 582 -127 582 -127 473 -209 c 0,59,60
 366 -292 366 -292 249 -369 c 2,61,-1
 225 -386 l 1,62,-1
 294 -185 l 2,63,64
 316 -119 316 -119 319 -27 c 1,65,-1
 319 -16 l 2,66,67
 319 22 319 22 312 65 c 1,68,69
 292 71 292 71 277 71 c 0,70,71
 257 71 257 71 235 65 c 0,72,73
 182 51 182 51 139 42 c 1,74,-1
 139 57 l 2,75,76
 139 100 139 100 212 140 c 0,0,1
EndSplineSet
Validated: 1
EndChar

StartChar: g
Encoding: 103 103 29
Width: 1322
VWidth: 1702
Flags: W
HStem: 38 149<534.808 929.569> 1152 20G<846 931.5> 1152 20G<846 931.5>
VStem: 72 245<388.442 682.962>
LayerCount: 2
Fore
SplineSet
1084 152 m 1,0,1
 925 42 925 42 568 38 c 0,2,3
 546 38 546 38 523 39 c 0,4,5
 171 53 171 53 79 385 c 1,6,7
 72 433 72 433 72 478 c 0,8,9
 72 583 72 583 111 671 c 0,10,11
 165 796 165 796 243 909 c 0,12,-1
 244 910 l 1,13,14
 399 1080 399 1080 632 1132 c 0,15,16
 763 1161 763 1161 826 1168 c 0,17,18
 846 1171 l 2,19,-1
 848 1172 l 1,20,-1
 851 1172 l 2,21,22
 1012 1172 1012 1172 1131 1051 c 2,23,-1
 1134 1048 l 1,24,-1
 1134 1044 l 2,25,26
 1133 1010 1133 1010 1121 990 c 0,27,28
 1104 963 1104 963 1067 956 c 0,29,30
 1008 945 1008 945 978 911 c 2,31,-1
 972 904 l 1,32,-1
 964 908 l 2,33,34
 760 1015 760 1015 658 1016 c 0,35,36
 645 1016 645 1016 634 1014 c 0,37,38
 409 980 409 980 343 744 c 0,39,40
 317 652 317 652 317 581 c 0,41,42
 317 274 317 274 660 188 c 0,43,44
 664 187 664 187 691 187 c 0,45,46
 874 187 874 187 1044 276 c 0,47,48
 1299 409 1299 409 1301 410 c 2,49,-1
 1324 423 l 1,50,51
 1249 204 1249 204 1185 7 c 0,52,53
 1122 -190 1122 -190 962 -303 c 2,54,-1
 928 -327 l 1,55,-1
 946 -291 l 2,56,57
 985 -212 985 -212 1031 -71 c 0,58,59
 1066 34 1066 34 1084 152 c 1,0,1
EndSplineSet
Validated: 1
EndChar

StartChar: h
Encoding: 104 104 30
Width: 1217
VWidth: 1843
Flags: W
HStem: 986 168<588.422 833.668> 1434 142<-5 299>
VStem: 107 294<130.318 931.953> 147 261<408.691 934.303> 974 277<478.028 810.504>
LayerCount: 2
Fore
SplineSet
1238 854 m 1,0,1
 1251 783 1251 783 1251 716 c 0,2,3
 1251 501 1251 501 1124 312 c 0,4,5
 957 65 957 65 718 -23 c 2,6,-1
 649 -49 l 1,7,-1
 708 -6 l 2,8,9
 974 186 974 186 974 531 c 0,10,11
 974 604 974 604 962 684 c 0,12,13
 942 819 942 819 884 894 c 0,14,15
 813 986 813 986 681 986 c 0,16,17
 566 986 566 986 406 916 c 1,18,19
 408 842 408 842 408 741 c 128,-1,20
 408 640 408 640 405 553 c 0,21,22
 401 466 401 466 401 423 c 0,23,24
 401 264 401 264 425 126 c 1,25,26
 454 91 454 91 473 86 c 1,27,-1
 475 86 l 1,28,-1
 599 97 l 1,29,-1
 583 79 l 2,30,31
 524 10 524 10 436 -27 c 0,32,33
 354 -62 354 -62 234 -62 c 2,34,-1
 209 -62 l 1,35,-1
 206 -57 l 2,36,37
 107 133 107 133 107 405 c 0,38,39
 107 523 107 523 125 656 c 0,40,41
 147 822 147 822 147 969 c 0,42,43
 147 1210 147 1210 87 1403 c 1,44,45
 44 1425 44 1425 12 1432 c 0,46,47
 5 1434 5 1434 -5 1434 c 0,48,49
 -33 1434 -33 1434 -75 1420 c 2,50,-1
 -129 1401 l 1,51,-1
 -85 1437 l 2,52,53
 -13 1495 -13 1495 75 1534 c 0,54,55
 167 1574 167 1574 299 1576 c 1,56,-1
 302 1573 l 2,57,58
 396 1483 396 1483 418 1301 c 0,59,60
 427 1232 427 1232 427 1165 c 0,61,62
 427 1105 427 1105 412 1024 c 5,63,64
 573 1143 573 1143 875 1154 c 0,65,-1
 876 1154 l 1,66,-1
 892 1155 l 1,67,68
 1145 1155 1145 1155 1238 854 c 1,0,1
EndSplineSet
Validated: 1
EndChar

StartChar: i
Encoding: 105 105 31
Width: 661
VWidth: 1566
Flags: W
HStem: 9 21G<241 324.5> 1153 20G<258.5 318> 1153 20G<258.5 318>
VStem: 102 244<237.387 880.87>
LayerCount: 2
Fore
SplineSet
318 1167 m 2,0,1
 391 1057 391 1057 391 884 c 0,2,3
 391 784 391 784 367 662 c 0,4,5
 346 563 346 563 346 476 c 0,6,7
 346 472 346 472 346 468 c 0,8,9
 346 280 346 280 438 151 c 1,10,11
 462 151 462 151 484 150 c 0,12,13
 521 150 521 150 557 151 c 2,14,15
 615 152 615 152 655 169 c 2,16,-1
 705 192 l 1,17,-1
 666 153 l 2,18,19
 572 61 572 61 395 20 c 0,20,21
 346 9 346 9 303 9 c 0,22,23
 179 9 179 9 104 99 c 2,24,-1
 102 102 l 1,25,-1
 102 541 l 2,26,27
 102 757 102 757 120 957 c 1,28,29
 110 995 110 995 84 1014 c 0,30,31
 68 1026 68 1026 37 1027 c 0,32,33
 21 1027 21 1027 2 1023 c 2,34,-1
 -30 1017 l 1,35,-1
 -7 1039 l 2,36,37
 47 1093 47 1093 125 1126 c 128,-1,38
 203 1159 203 1159 314 1173 c 1,39,-1
 318 1167 l 2,0,1
EndSplineSet
Validated: 1
EndChar

StartChar: k
Encoding: 107 107 32
Width: 1538
VWidth: 1741
Flags: W
HStem: 42 150<1051.63 1284.18> 864 201<782.5 918.494> 1297 21G<47.3684 63.0769> 1354 122<161.717 211.066>
VStem: 166 237<153.69 408.107> 263 229<847.662 1300.09>
LayerCount: 2
Fore
SplineSet
224 17 m 2,0,1
 166 144 166 144 166 311 c 0,2,3
 166 454 166 454 208 626 c 0,4,5
 263 851 263 851 263 1037 c 0,6,7
 263 1155 263 1155 240 1258 c 1,8,9
 223 1310 223 1310 175 1342 c 0,10,11
 157 1354 157 1354 137 1354 c 0,12,13
 106 1354 106 1354 70 1323 c 2,14,-1
 40 1297 l 1,15,-1
 54 1335 l 2,16,17
 78 1395 78 1395 192 1446 c 1,18,19
 291 1476 291 1476 319 1476 c 0,20,21
 321 1476 321 1476 322 1476 c 128,-1,22
 323 1476 323 1476 325 1476 c 0,23,24
 375 1476 375 1476 432 1458 c 1,25,-1
 433 1455 l 2,26,27
 491 1348 491 1348 492 1162 c 2,28,-1
 492 1153 l 2,29,30
 492 967 492 967 471 842 c 1,31,32
 576 933 576 933 716 993 c 0,33,34
 882 1065 882 1065 920 1065 c 0,35,36
 921 1065 l 0,37,38
 992 1065 992 1065 1071 1036 c 2,39,-1
 1087 1030 l 1,40,-1
 1075 1019 l 2,41,42
 904 868 904 868 772 864 c 0,43,44
 578 859 578 859 513 700 c 1,45,46
 642 529 642 529 909 320 c 0,47,48
 1073 192 1073 192 1275 192 c 0,49,50
 1388 192 1388 192 1511 232 c 2,51,-1
 1575 254 l 1,52,-1
 1520 215 l 2,53,54
 1453 169 1453 169 1312 99 c 0,55,56
 1196 42 1196 42 1064 42 c 0,57,58
 1030 42 1030 42 996 46 c 1,59,60
 825 91 825 91 684 223 c 0,61,62
 551 347 551 347 429 410 c 1,63,64
 403 354 403 354 403 288 c 0,65,66
 403 255 403 255 409 222 c 0,67,68
 418 171 418 171 454 149 c 0,69,70
 483 130 483 130 529 130 c 0,71,72
 544 130 544 130 562 132 c 2,73,-1
 590 135 l 1,74,-1
 570 115 l 2,75,76
 512 56 512 56 421 24 c 0,77,78
 363 3 363 3 304 3 c 0,79,80
 267 3 267 3 226 12 c 1,81,-1
 224 17 l 2,0,1
EndSplineSet
Validated: 1
EndChar

StartChar: l
Encoding: 108 108 33
Width: 579
VWidth: 1739
Flags: W
HStem: -2 117<327 586.75> 1304 21G<-53.8889 -17> 1472 20G<249 312>
VStem: 163 244<181.467 923.043> 218 255<775.707 1263.49>
LayerCount: 2
Fore
SplineSet
442 185 m 1,0,1
 469 140 469 140 519 123 c 0,2,3
 544 115 544 115 572.5 115 c 128,-1,4
 601 115 601 115 630 124 c 2,5,-1
 667 134 l 1,6,-1
 640 107 l 2,7,8
 557 23 557 23 431 2 c 0,9,10
 405 -2 405 -2 380 -2 c 0,11,12
 274 -2 274 -2 193 73 c 2,13,-1
 191 75 l 1,14,15
 164 220 164 220 163 400 c 0,16,17
 163 623 163 623 204 900 c 0,18,19
 218 993 218 993 218 1068 c 0,20,21
 218 1186 218 1186 182 1252 c 0,22,23
 140 1330 140 1330 49 1330 c 0,24,25
 19 1330 19 1330 -17 1321 c 2,26,-1
 -90 1304 l 1,27,-1
 -25 1340 l 2,28,29
 -3 1352 -3 1352 97 1422 c 0,30,31
 200 1492 200 1492 298 1492 c 2,32,-1
 310 1492 l 1,33,-1
 312 1491 l 2,34,35
 473 1420 473 1420 473 1154 c 0,36,37
 473 1051 473 1051 451 919 c 0,38,39
 407 674 407 674 407 483 c 0,40,41
 408 313 408 313 442 185 c 1,0,1
EndSplineSet
Validated: 1
EndChar

StartChar: m
Encoding: 109 109 34
Width: 1886
VWidth: 1917
Flags: W
HStem: 50 121<437.98 545.047 1000.8 1129.42> 63 44<1354.1 1400.77> 943 159<1329.94 1477.8> 1117 20G<582.5 859.5>
VStem: 11 237<360.105 638.043> 809 240<185.587 795.64> 827 247<444.477 896.249> 1642 252<458.282 759.824>
LayerCount: 2
Fore
SplineSet
626 154 m 2,0,1
 528 56 528 56 377 56 c 0,2,3
 361 56 361 56 345 57 c 0,4,5
 173 68 173 68 87 173 c 0,6,-1
 86 174 l 1,7,8
 11 306 11 306 11 438 c 0,9,10
 11 624 11 624 161 807 c 0,11,12
 417 1120 417 1120 748 1137 c 2,13,14
 971 1137 971 1137 1052 944 c 1,15,16
 1182 997 1182 997 1264 1031 c 0,17,18
 1325 1056 1325 1056 1390 1079 c 132,-1,19
 1455 1102 1455 1102 1519 1102 c 0,20,21
 1571 1102 1571 1102 1622 1093 c 0,22,-1
 1623 1093 l 1,23,24
 1782 1048 1782 1048 1854 869 c 0,25,26
 1894 771 1894 771 1894 671 c 0,27,28
 1894 584 1894 584 1865 493 c 1,29,30
 1822 380 1822 380 1727 298 c 0,31,32
 1637 220 1637 220 1528 157 c 2,33,-1
 1461 118 l 2,34,35
 1399 82 1399 82 1357 63 c 1,36,37
 1354 80 1354 80 1354 83 c 0,38,39
 1354 96 1354 96 1365 101 c 0,40,41
 1377 106 1377 106 1381 107 c 0,42,43
 1397 110 1397 110 1401 112 c 0,44,45
 1427 126 1427 126 1465 147 c 0,46,47
 1503 169 1503 169 1507 173 c 0,48,49
 1642 326 1642 326 1642 544 c 0,50,51
 1642 818 1642 818 1435 927 c 1,52,53
 1385 943 1385 943 1326 943 c 0,54,55
 1295 943 1295 943 1262 938 c 0,56,57
 1167 925 1167 925 1071 876 c 1,58,59
 1074 828 1074 828 1074 780 c 0,60,61
 1074 776 1074 776 1074 772 c 0,62,63
 1074 641 1074 641 1057 511 c 0,64,65
 1049 450 1049 450 1049 398 c 0,66,67
 1049 283 1049 283 1084 185 c 1,68,69
 1103 171 1103 171 1128 171 c 0,70,71
 1135 171 1135 171 1142 172 c 0,72,73
 1180 178 1180 178 1209 188 c 2,74,-1
 1243 201 l 1,75,-1
 1221 173 l 2,76,77
 1170 110 1170 110 1092 76 c 0,78,79
 1032 50 1032 50 942 50 c 0,80,81
 917 50 917 50 885 53 c 1,82,-1
 883 58 l 2,83,84
 809 222 809 222 809 442 c 0,85,86
 809 521 809 521 822 635 c 0,87,88
 827 679 827 679 827 718 c 0,89,90
 827 832 827 832 779 903 c 0,91,92
 757 936 757 936 582 956 c 1,93,94
 396 925 396 925 314 803 c 0,95,96
 248 704 248 704 248 544 c 2,97,-1
 248 522 l 1,98,99
 251 407 251 407 328 305 c 0,100,101
 420 184 420 184 620 171 c 2,102,-1
 642 170 l 1,103,-1
 626 154 l 2,0,1
EndSplineSet
Validated: 1025
EndChar

StartChar: n
Encoding: 110 110 35
Width: 1220
VWidth: 1870
Flags: W
HStem: 25 118<1195.42 1276.7> 906 172<-13.5 191.5>
VStem: 96 172<-35.125 630.896> 1015 235<393.707 935.484>
LayerCount: 2
Fore
SplineSet
1226 1082 m 1,0,1
 1250 917 1250 917 1250 711 c 0,2,3
 1250 673 1250 673 1249 634 c 0,4,5
 1244 383 1244 383 1124 265 c 1,6,7
 1166 201 1166 201 1233 162 c 0,8,9
 1265 143 1265 143 1300 143 c 0,10,11
 1341 143 1341 143 1387 170 c 1,12,-1
 1399 153 l 1,13,14
 1253 25 1253 25 1112 25 c 2,15,-1
 1110 25 l 2,16,17
 951 25 951 25 800 185 c 0,18,19
 528 474 528 474 316 650 c 1,20,21
 276 447 276 447 268 211 c 0,22,23
 261 -40 261 -40 139 -178 c 2,24,-1
 123 -195 l 1,25,-1
 121 -172 l 2,26,27
 97 105 97 105 96 356 c 2,28,-1
 96 390 l 2,29,30
 96 622 96 622 103 858 c 1,31,32
 63 906 63 906 -5 906 c 0,33,34
 -22 906 -22 906 -40 903 c 0,35,36
 -138 888 -138 888 -200 852 c 2,37,-1
 -267 813 l 1,38,-1
 -212 868 l 2,39,40
 -122 958 -122 958 8 1036 c 0,41,42
 81 1078 81 1078 158 1078 c 0,43,44
 225 1078 225 1078 298 1046 c 1,45,46
 478 927 478 927 665 685 c 0,47,48
 842 457 842 457 1012 370 c 1,49,-1
 1012 406 l 2,50,51
 1012 616 1012 616 1015 691 c 0,52,53
 1015 832 1015 832 997 940 c 1,54,-1
 986 940 l 2,55,56
 950 940 950 940 922 935 c 0,57,58
 889 929 889 929 870 907 c 2,59,-1
 819 850 l 1,60,-1
 853 918 l 2,61,62
 882 976 882 976 999 1037 c 0,63,64
 1094 1086 1094 1086 1179 1086 c 0,65,66
 1199 1086 1199 1086 1226 1082 c 1,0,1
EndSplineSet
Validated: 1
EndChar

StartChar: o
Encoding: 111 111 36
Width: 1200
VWidth: 1584
Flags: W
HStem: 1 161<360 638.988> 958 114<488.013 752.155>
VStem: 11 222<365.414 651.713> 966 227<509.144 761.746>
LayerCount: 2
Fore
SplineSet
1168 911 m 1,0,1
 1193 818 1193 818 1193 732 c 0,2,3
 1193 478 1193 478 982 267 c 0,4,5
 711 1 711 1 377 1 c 0,6,7
 343 1 343 1 333 2 c 0,8,9
 82 51 82 51 26 305 c 0,10,11
 11 375 11 375 11 441 c 0,12,13
 11 611 11 611 115 753 c 0,14,-1
 116 754 l 1,15,16
 164 803 164 803 327 921 c 0,17,18
 493 1040 493 1040 566 1072 c 0,19,-1
 567 1072 l 1,20,21
 664 1105 664 1105 755 1105 c 0,22,23
 830 1105 830 1105 902 1084 c 0,24,25
 1056 1036 1056 1036 1168 911 c 1,0,1
332 283 m 0,26,27
 444 162 444 162 616 162 c 0,28,29
 628 162 628 162 640 163 c 0,30,31
 902 199 902 199 954 455 c 0,32,33
 966 514 966 514 966 569 c 0,34,35
 966 751 966 751 833 880 c 1,36,37
 725 958 725 958 614 958 c 0,38,39
 552 958 552 958 488 933 c 0,40,41
 311 863 311 863 238 693 c 1,42,43
 233 622 233 622 233 597 c 0,44,45
 234 388 234 388 332 283 c 0,26,27
EndSplineSet
Validated: 1
EndChar

StartChar: p
Encoding: 112 112 37
Width: 1142
VWidth: 1740
Flags: W
HStem: -363 21G<167.739 184> 904 182<643.359 753.642>
VStem: 189 163<-171.681 579.632> 921 220<497.541 718.773>
LayerCount: 2
Fore
SplineSet
389 1005 m 0,0,1
 406 974 406 974 406 933 c 0,2,3
 406 906 406 906 398 876 c 1,4,5
 509 921 509 921 582 995 c 0,6,7
 665 1080 665 1080 812 1086 c 0,8,-1
 813 1086 l 1,9,10
 976 1075 976 1075 1062 947 c 0,11,12
 1141 829 1141 829 1141 684 c 0,13,14
 1141 682 1141 682 1141 680 c 2,15,-1
 1141 657 l 1,16,17
 1113 439 1113 439 943 287 c 0,18,19
 768 135 768 135 663 85 c 2,20,-1
 581 46 l 1,21,-1
 652 102 l 2,22,23
 753 181 753 181 842 295 c 0,24,25
 921 397 921 397 921 548 c 0,26,27
 921 561 921 561 921 576 c 0,28,29
 876 836 876 836 672 894 c 1,30,31
 639 904 639 904 609 904 c 0,32,33
 462 904 462 904 393 656 c 1,34,35
 361 387 361 387 352 82 c 0,36,37
 343 -228 343 -228 184 -349 c 2,38,-1
 166 -363 l 1,39,-1
 168 -340 l 2,40,41
 189 -53 189 -53 189 321 c 128,-1,42
 189 695 189 695 102 953 c 1,43,44
 80 960 80 960 71 960 c 0,45,46
 56 960 56 960 44 950 c 0,47,48
 14 925 14 925 -37 916 c 2,49,-1
 -68 910 l 1,50,-1
 -46 933 l 2,51,52
 17 997 17 997 93 1047.5 c 128,-1,53
 169 1098 169 1098 301 1103 c 1,54,-1
 304 1101 l 2,55,56
 359 1061 359 1061 389 1005 c 0,0,1
EndSplineSet
Validated: 1
EndChar

StartChar: q
Encoding: 113 113 38
Width: 1081
VWidth: 1739
Flags: W
HStem: 87 164<322 638.5> 958 177<481.921 779.593>
VStem: 28 196<436.86 660.167> 768 223<313.804 935.879> 798 198<-25.5352 234>
LayerCount: 2
Fore
SplineSet
516 115 m 0,0,1
 447 87 447 87 377 87 c 0,2,3
 267 87 267 87 162 156 c 1,4,5
 28 289 28 289 28 458 c 0,6,7
 28 580 28 580 99 722 c 0,8,9
 267 1056 267 1056 617 1133 c 1,10,11
 644 1135 644 1135 668 1135 c 0,12,13
 761 1135 761 1135 832 1111 c 0,14,15
 885 1093 885 1093 955 1093 c 0,16,17
 996 1093 996 1093 1045 1100 c 2,18,-1
 1059 1102 l 1,19,-1
 1056 1088 l 2,20,21
 992 822 992 822 991 622 c 0,22,23
 991 575 991 575 995 531 c 0,24,25
 996 519 996 519 996 507 c 0,26,27
 998 186 998 186 1023 -75 c 1,28,29
 906 -200 906 -200 783 -313 c 2,30,-1
 754 -339 l 1,31,-1
 766 -303 l 2,32,33
 798 -204 798 -204 798 -6 c 0,34,35
 798 0 798 0 798 6 c 0,36,37
 798 126 798 126 785 234 c 1,38,39
 680 181 680 181 516 115 c 0,0,1
782 921 m 1,40,41
 673 958 673 958 579 958 c 0,42,43
 463 958 463 958 368 901 c 0,44,45
 224 814 224 814 224 594 c 0,46,47
 224 554 224 554 229 510 c 1,48,49
 285 363 285 363 451 284 c 0,50,51
 520 251 520 251 591 251 c 0,52,53
 686 251 686 251 782 312 c 1,54,55
 768 369 768 369 768 521 c 128,-1,56
 768 673 768 673 782 921 c 1,40,41
EndSplineSet
Validated: 1
EndChar

StartChar: r
Encoding: 114 114 39
Width: 1428
VWidth: 1740
Flags: W
HStem: 31 146<1045.48 1254.29> 1099 20G<325.5 395.5 869.5 959>
VStem: 220 235<-17.8828 880.245>
LayerCount: 2
Fore
SplineSet
1016 240 m 0,0,1
 1105 177 1105 177 1210 177 c 0,2,3
 1305 177 1305 177 1412 231 c 2,4,-1
 1452 251 l 1,5,-1
 1424 216 l 2,6,7
 1278 31 1278 31 1060 31 c 2,8,-1
 1053 31 l 2,9,10
 993 31 993 31 927 46 c 0,11,12
 620 115 620 115 503 358 c 2,13,-1
 501 362 l 1,14,-1
 503 367 l 2,15,16
 557 464 557 464 735 580 c 0,17,18
 856 659 856 659 876 812 c 0,19,20
 876 817 876 817 875 832 c 0,21,22
 854 912 854 912 799 948 c 0,23,24
 755 976 755 976 687 976 c 2,25,-1
 679 976 l 1,26,27
 520 972 520 972 451 816 c 1,28,29
 455 691 455 691 455 569 c 0,30,31
 455 360 455 360 444 162 c 0,32,33
 426 -158 426 -158 195 -272 c 2,34,-1
 178 -280 l 1,35,-1
 181 -262 l 2,36,37
 215 20 215 20 219 306 c 0,38,39
 220 371 220 371 220 435 c 0,40,41
 220 671 220 671 200 887 c 1,42,43
 184 924 184 924 135 929 c 2,44,-1
 114 931 l 1,45,46
 74 931 74 931 39 915 c 2,47,-1
 5 901 l 1,48,-1
 26 930 l 2,49,50
 105 1039 105 1039 272 1104 c 0,51,52
 310 1119 310 1119 341 1119 c 0,53,54
 450 1119 450 1119 466 947 c 1,55,56
 576 1053 576 1053 768 1133 c 0,57,58
 839 1162 839 1162 900 1162 c 0,59,60
 1018 1162 1018 1162 1091 1047 c 1,61,62
 1109 994 1109 994 1109 961 c 0,63,64
 1109 954 1109 954 1108 948 c 0,65,66
 1086 775 1086 775 1010 705 c 0,67,68
 991 687 991 687 753 485 c 1,69,70
 832 371 832 371 1016 240 c 0,0,1
EndSplineSet
Validated: 1
EndChar

StartChar: s
Encoding: 115 115 40
Width: 1003
VWidth: 1538
Flags: W
HStem: 1022 151<564.617 741.938>
VStem: 216 205<699.777 891.172> 352 271<222.159 519.19> 391 231<346.094 519.19>
LayerCount: 2
Fore
SplineSet
453 711 m 0,0,1
 508 665 508 665 602 522 c 1,2,3
 622 432 622 432 622 352 c 0,4,5
 622 349 622 349 623 346 c 0,6,7
 623 268 623 268 608 196 c 0,8,9
 576 32 576 32 457 -4 c 1,10,11
 445 -6 445 -6 422 -6 c 0,12,13
 214 -6 214 -6 107 148 c 0,14,15
 10 286 10 286 1 386 c 1,16,17
 3 483 3 483 97 538 c 0,18,19
 132 558 132 558 240 617 c 1,20,-1
 235 595 l 2,21,22
 220 535 220 535 201 523 c 0,23,24
 178 509 178 509 163 465 c 1,25,-1
 289 243 l 1,26,-1
 391 220 l 1,27,28
 383 289 383 289 367.5 369 c 128,-1,29
 352 449 352 449 352 498 c 2,30,-1
 352 506 l 1,31,32
 354 524 354 524 354 533.5 c 128,-1,33
 354 543 354 543 353 548 c 0,34,35
 292 581 292 581 257 618 c 0,36,37
 230 648 230 648 216 739 c 0,38,-1
 216 740 l 1,39,40
 217 953 217 953 515 1105 c 0,41,42
 649 1173 649 1173 765 1173 c 0,43,44
 900 1173 900 1173 1005 1073 c 2,45,-1
 1008 1070 l 1,46,-1
 1008 1066 l 2,47,48
 1007 989 1007 989 954 960 c 0,49,50
 909 935 909 935 861 899 c 1,51,-1
 855 905 l 2,52,53
 777 982 777 982 619 1015 c 0,54,55
 587 1022 587 1022 560 1022 c 2,56,-1
 558 1022 l 2,57,58
 460 1022 460 1022 431 926 c 1,59,60
 421 864 421 864 421 819 c 0,61,62
 421 737 421 737 453 711 c 0,0,1
EndSplineSet
Validated: 1
EndChar

StartChar: t
Encoding: 116 116 41
Width: 1196
VWidth: 1652
Flags: W
HStem: -3 167<561.777 843.016> 1000 172<197.816 580>
VStem: 42 288<361.798 611.139>
LayerCount: 2
Fore
SplineSet
603 893 m 0,0,1
 331 778 331 778 330 566 c 0,2,3
 330 553 330 553 331 541 c 2,4,-1
 338 439 l 1,5,6
 407 223 407 223 687 174 c 0,7,8
 743 164 743 164 796 164 c 0,9,10
 1007 164 1007 164 1161 318 c 2,11,-1
 1173 330 l 1,12,-1
 1178 314 l 2,13,14
 1180 306 1180 306 1180 297 c 0,15,16
 1180 235 1180 235 1064 156 c 0,17,18
 927 67 927 67 821 34 c 0,19,20
 706 -3 706 -3 590 -3 c 0,21,22
 448 -3 448 -3 305 52 c 0,23,24
 51 152 51 152 42 418 c 0,25,-1
 42 419 l 1,26,27
 77 704 77 704 219 789 c 0,28,29
 457 922 457 922 580 1000 c 1,30,31
 406 1001 406 1001 274 1014 c 0,32,33
 251 1016 251 1016 236 1016 c 128,-1,34
 221 1016 221 1016 213 1016 c 1,35,36
 91 1016 91 1016 -14 966 c 2,37,-1
 -24 961 l 1,38,-1
 -27 972 l 2,39,40
 -29 977 -29 977 -29 980 c 0,41,42
 -29 991 -29 991 -22 996.5 c 128,-1,43
 -15 1002 -15 1002 -6 1003 c 1,44,45
 154 1172 154 1172 512 1172 c 2,46,-1
 526 1172 l 1,47,-1
 1239 1163 l 1,48,-1
 1190 1145 l 2,49,50
 1105 1113 1105 1113 603 893 c 0,0,1
EndSplineSet
Validated: 1
EndChar

StartChar: x
Encoding: 120 120 42
Width: 1448
VWidth: 1740
Flags: W
HStem: 968 151<111.5 471> 1008 168<1028 1333.51>
LayerCount: 2
Fore
SplineSet
1251 959 m 2,0,1
 1152 1008 1152 1008 1052 1008 c 0,2,3
 1004 1008 1004 1008 957 997 c 0,4,5
 814 964 814 964 725 877 c 1,6,7
 872 672 872 672 1017 405 c 0,8,9
 1140 181 1140 181 1343 181 c 0,10,11
 1380 181 1380 181 1419 189 c 2,12,-1
 1439 193 l 1,13,-1
 1430 175 l 2,14,15
 1396 107 1396 107 1282 50 c 0,16,17
 1184 2 1184 2 1055 2 c 0,18,19
 1034 2 1034 2 1007 3 c 1,20,21
 868 150 868 150 759.5 315 c 128,-1,22
 651 480 651 480 541 642 c 1,23,24
 306 463 306 463 253 104 c 2,25,-1
 252 97 l 1,26,-1
 246 95 l 2,27,28
 192 83 192 83 153 52.5 c 128,-1,29
 114 22 114 22 61 4 c 2,30,-1
 45 -2 l 1,31,-1
 48 15 l 2,32,33
 94 251 94 251 209 417 c 0,34,35
 325 583 325 583 455 731 c 1,36,37
 384 834 384 834 257 926 c 0,38,39
 201 967 201 967 145 968 c 0,40,41
 78 968 78 968 11 906 c 2,42,-1
 -28 870 l 1,43,-1
 -5 917 l 2,44,45
 85 1103 85 1103 331 1118 c 0,46,47
 346 1119 346 1119 360 1119 c 0,48,49
 582 1119 582 1119 679 910 c 1,50,51
 836 1008 836 1008 1025 1117 c 0,52,53
 1127 1176 1127 1176 1241 1176 c 0,54,55
 1346 1176 1346 1176 1461 1124 c 2,56,-1
 1470 1120 l 1,57,-1
 1466 1111 l 2,58,59
 1437 1047 1437 1047 1374 1019 c 0,60,61
 1315 993 1315 993 1256 957 c 1,62,-1
 1251 959 l 2,0,1
EndSplineSet
Validated: 1
EndChar

StartChar: y
Encoding: 121 121 43
Width: 1304
VWidth: 1862
Flags: W
HStem: 941 105<126.258 391.5> 1229 140<622 844.5>
VStem: 1096 205<527.937 903.061>
LayerCount: 2
Fore
SplineSet
687.5 1333 m 128,-1,1
 752 1369 752 1369 819 1369 c 0,2,3
 870 1369 870 1369 908.5 1334 c 128,-1,4
 947 1299 947 1299 948 1222 c 2,5,-1
 948 1219 l 1,6,-1
 946 1216 l 2,7,8
 918 1177 918 1177 868 1157 c 0,9,10
 825 1139 825 1139 796 1104 c 2,11,-1
 788 1095 l 1,12,-1
 780 1103 l 2,13,14
 739 1144 739 1144 711 1192 c 0,15,16
 689 1229 689 1229 627 1229 c 0,17,18
 617 1229 617 1229 588 1226 c 1,19,-1
 596 1242 l 2,20,0
 623 1297 623 1297 687.5 1333 c 128,-1,1
1226 1074 m 0,21,22
 1237 1064 1237 1064 1248 1074 c 2,23,-1
 1256 1074 l 1,24,-1
 1258 1067 l 2,25,26
 1301 917 1301 917 1301 782 c 0,27,28
 1301 475 1301 475 1077 250 c 0,29,30
 751 -71 751 -71 360 -207 c 2,31,-1
 300 -228 l 1,32,-1
 351 -190 l 2,33,34
 451 -114 451 -114 572 -67 c 128,-1,35
 693 -20 693 -20 760 79 c 1,36,37
 665 346 665 346 525 569 c 128,-1,38
 385 792 385 792 171 940 c 1,39,40
 157 941 157 941 152 941 c 0,41,42
 127 941 127 941 107.5 932 c 128,-1,43
 88 923 88 923 58 923 c 0,44,45
 44 923 44 923 29 925 c 2,46,-1
 3 929 l 1,47,-1
 25 943 l 2,48,49
 177 1046 177 1046 307 1046 c 0,50,51
 476 1046 476 1046 606 880 c 0,52,53
 829 595 829 595 942 305 c 1,54,55
 1052 402 1052 402 1087 624 c 0,56,57
 1096 676 1096 676 1096 722 c 0,58,59
 1096 881 1096 881 996 976 c 2,60,-1
 985 986 l 1,61,62
 1051 1017 1051 1017 1101 1044.5 c 128,-1,63
 1151 1072 1151 1072 1226 1074 c 0,21,22
EndSplineSet
Validated: 1
EndChar

StartChar: u
Encoding: 117 117 44
Width: 1356
VWidth: 1918
Flags: W
HStem: 6 148<420.269 563.973> 1116 20G<235.5 317>
VStem: 43 238<262.02 619.233> 130 250<651.678 938.222> 928 259<436.473 951.562> 928 235<312.197 951.562>
LayerCount: 2
Fore
SplineSet
943 90 m 0,0,1
 926 129 926 129 926 184 c 0,2,3
 926 193 926 193 926 203 c 1,4,5
 740 98 740 98 476 24 c 0,6,7
 409 6 409 6 351 6 c 2,8,-1
 344 6 l 2,9,10
 156 6 156 6 46 181 c 2,11,-1
 44 183 l 1,12,13
 43 211 43 211 43 236 c 0,14,15
 43 481 43 481 114 741 c 0,16,17
 130 797 130 797 130 838 c 0,18,19
 130 909 130 909 86 940 c 0,20,21
 50 965 50 965 -16 965 c 0,22,23
 -55 965 -55 965 -104 956 c 2,24,-1
 -137 950 l 1,25,-1
 -113 973 l 2,26,27
 -39 1043 -39 1043 62 1086 c 0,28,29
 164 1129 164 1129 307 1136 c 2,30,-1
 314 1136 l 1,31,-1
 317 1131 l 2,32,33
 380 1020 380 1020 380 889 c 128,-1,34
 380 758 380 758 321 610 c 0,35,36
 281 508 281 508 281 423 c 0,37,38
 281 265 281 265 418 160 c 1,39,40
 491 154 491 154 515 154 c 0,41,42
 650 154 650 154 738 199 c 0,43,44
 856 259 856 259 928 365 c 1,45,-1
 928 927 l 1,46,47
 902 955 902 955 860 955 c 2,48,-1
 849 955 l 1,49,50
 795 951 795 951 742 937 c 2,51,-1
 695 925 l 1,52,-1
 733 955 l 2,53,54
 811 1016 811 1016 916 1066 c 0,55,56
 980 1097 980 1097 1054 1097 c 0,57,58
 1104 1097 1104 1097 1165 1081 c 1,59,60
 1187 956 1187 956 1187 829 c 0,61,62
 1187 823 1187 823 1187 818 c 2,63,-1
 1187 804 l 2,64,65
 1187 704 1187 704 1175 608.5 c 128,-1,66
 1163 513 1163 513 1163 434 c 0,67,68
 1163 285 1163 285 1200 158 c 1,69,70
 1245 143 1245 143 1290 143 c 0,71,72
 1318 143 1318 143 1349 149 c 0,73,74
 1430 164 1430 164 1469 209 c 1,75,-1
 1484 197 l 1,76,77
 1433 130 1433 130 1317 64 c 0,78,79
 1200 -2 1200 -2 1009 -2 c 2,80,-1
 1005 -2 l 1,81,82
 965 42 965 42 943 90 c 0,0,1
EndSplineSet
Validated: 1
EndChar

StartChar: ae
Encoding: 230 230 45
Width: 1721
VWidth: 1822
Flags: W
HStem: 19 148<1287.05 1544.81> 959 134<223.048 331.936> 1039 145<1234.04 1328.45>
VStem: 107 197<60.7827 502.516>
LayerCount: 2
Fore
SplineSet
1254 1149 m 0,0,1
 1337 1184 1337 1184 1407 1184 c 2,2,-1
 1408 1184 l 2,3,4
 1518 1184 1518 1184 1595 1100 c 2,5,-1
 1598 1096 l 1,6,-1
 1598 1092 l 2,7,8
 1578 903 1578 903 1486 837 c 0,9,10
 1368 752 1368 752 1305 719 c 0,11,12
 1287 709 1287 709 987 574 c 1,13,14
 1036 362 1036 362 1262 224 c 0,15,16
 1359 167 1359 167 1507 167 c 0,17,18
 1644 167 1644 167 1792 234 c 2,19,-1
 1860 265 l 1,20,-1
 1802 217 l 2,21,22
 1561 19 1561 19 1316 19 c 0,23,24
 1315 19 1315 19 1314 19 c 2,25,-1
 1311 19 l 2,26,27
 1209 19 1209 19 1106 52 c 2,28,-1
 1063 65 l 1,29,30
 901 124 901 124 798 282 c 0,31,32
 768 328 768 328 737 377 c 0,33,34
 737 378 737 378 641 556 c 1,35,36
 572 227 572 227 539 165 c 0,37,38
 452 3 452 3 164 3 c 2,39,-1
 146 3 l 1,40,-1
 144 10 l 2,41,42
 107 132 107 132 107 252 c 128,-1,43
 107 372 107 372 146 489 c 0,44,45
 223 716 223 716 456 773 c 1,46,47
 403 871 403 871 319 923 c 0,48,49
 263 959 263 959 184 959 c 2,50,-1
 182 959 l 2,51,52
 131 959 131 959 69 945 c 2,53,-1
 -14 927 l 1,54,-1
 62 964 l 2,55,56
 136 1000 136 1000 232 1053 c 0,57,58
 303 1092 303 1092 418 1093 c 1,59,-1
 423 1093 l 2,60,61
 462 1093 462 1093 511 1087 c 1,62,63
 657 962 657 962 791 802 c 1,64,65
 847 895 847 895 913 951 c 0,66,67
 1039 1059 1039 1059 1254 1149 c 0,0,1
1228 785 m 0,68,69
 1342 830 1342 830 1342 937 c 0,70,71
 1342 971 1342 971 1331 1011 c 1,72,73
 1249 1038 1249 1038 1217 1039 c 1,74,75
 1138 1039 1138 1039 1081 971 c 0,76,77
 988 859 988 859 970 710 c 1,78,79
 1078 726 1078 726 1228 785 c 0,68,69
495 376 m 0,80,81
 511 445 511 445 511 508 c 0,82,83
 511 620 511 620 451 695 c 1,84,85
 333 665 333 665 312 473 c 0,86,87
 305 409 305 409 304 348 c 0,88,89
 304 223 304 223 335 110 c 1,90,91
 449 181 449 181 495 376 c 0,80,81
EndSplineSet
Validated: 2049
EndChar

StartChar: AE
Encoding: 198 198 46
Width: 1721
VWidth: 1822
Flags: W
HStem: 19 148<1288.68 1543.75> 963 132<223.048 331.936> 1039 145<1234.04 1328.45>
VStem: 107 197<60.7827 506.33>
LayerCount: 2
Fore
SplineSet
1254 1150 m 0,0,1
 1337 1184 1337 1184 1407 1184 c 2,2,-1
 1408 1184 l 2,3,4
 1518 1184 1518 1184 1595 1101 c 2,5,-1
 1598 1098 l 1,6,-1
 1598 1094 l 2,7,8
 1578 905 1578 905 1486 838 c 0,9,10
 1368 753 1368 753 1305 720 c 0,11,12
 1287 710 1287 710 987 575 c 1,13,14
 1036 363 1036 363 1262 225 c 0,15,16
 1359 167 1359 167 1507 167 c 0,17,18
 1644 167 1644 167 1792 234 c 2,19,-1
 1860 265 l 1,20,-1
 1802 218 l 2,21,22
 1560 19 1560 19 1314 19 c 2,23,-1
 1311 19 l 2,24,25
 1209 19 1209 19 1106 52 c 2,26,-1
 1063 66 l 1,27,28
 901 125 901 125 798 283 c 0,29,30
 768 329 768 329 737 377 c 0,31,32
 737 378 737 378 641 557 c 1,33,34
 572 228 572 228 539 166 c 0,35,36
 452 3 452 3 164 3 c 2,37,-1
 146 3 l 1,38,-1
 144 10 l 2,39,40
 107 132 107 132 107 252.5 c 128,-1,41
 107 373 107 373 146 491 c 0,42,43
 223 719 223 719 456 776 c 1,44,45
 403 875 403 875 319 927 c 0,46,47
 263 963 263 963 184 963 c 2,48,-1
 182 963 l 2,49,50
 131 963 131 963 69 949 c 2,51,-1
 -14 931 l 1,52,-1
 62 968 l 2,53,54
 136 1003 136 1003 232 1055 c 0,55,56
 303 1094 303 1094 418 1095 c 1,57,-1
 423 1095 l 2,58,59
 462 1095 462 1095 511 1088 c 1,60,61
 657 965 657 965 791 808 c 1,62,63
 847 899 847 899 913 954 c 0,64,65
 1039 1062 1039 1062 1254 1150 c 0,0,1
1228 785 m 0,66,67
 1342 830 1342 830 1342 937 c 0,68,69
 1342 971 1342 971 1331 1011 c 1,70,71
 1249 1038 1249 1038 1217 1039 c 1,72,73
 1138 1039 1138 1039 1081 971 c 0,74,75
 988 859 988 859 970 710 c 1,76,77
 1078 726 1078 726 1228 785 c 0,66,67
495 376 m 0,78,79
 511 445 511 445 511 508 c 0,80,81
 511 620 511 620 451 695 c 1,82,83
 333 665 333 665 312 473 c 0,84,85
 305 409 305 409 304 348 c 0,86,87
 304 223 304 223 335 110 c 1,88,89
 449 181 449 181 495 376 c 0,78,79
EndSplineSet
Validated: 2049
EndChar

StartChar: w
Encoding: 119 119 47
Width: 1892
VWidth: 1917
Flags: W
HStem: 1 143<1214.46 1401> 9 152<307 660.088> 962 113<1364.82 1499.77> 1084 59G<263.5 337 1033.5 1095>
VStem: 64 237<269.02 623.062> 151 249<656.334 946.136> 945 245<319.693 959.532> 1676 238<469.097 798.242>
LayerCount: 2
Fore
SplineSet
933 1073 m 4,0,1
 997 1104 997 1104 1070 1104 c 4,2,3
 1120 1104 1120 1104 1180 1088 c 5,4,-1
 1182 1082 l 6,5,6
 1188 1064 1188 1064 1190 607 c 4,7,8
 1192 284 1192 284 1217 159 c 4,9,10
 1220 144 1220 144 1249 144 c 4,11,12
 1291 144 1291 144 1377 177 c 4,13,14
 1656 282 1656 282 1674 562 c 4,15,16
 1676 585 1676 585 1676 606 c 4,17,18
 1676 791 1676 791 1563 879 c 4,19,20
 1466 954 1466 954 1305 961 c 6,21,-1
 1283 962 l 5,22,-1
 1298 978 l 6,23,24
 1389 1075 1389 1075 1546 1075 c 6,25,-1
 1549 1075 l 6,26,27
 1565 1075 1565 1075 1580 1074 c 4,28,29
 1752 1064 1752 1064 1838 959 c 4,30,-1
 1839 958 l 5,31,32
 1914 826 1914 826 1914 694 c 4,33,34
 1914 497 1914 497 1796 336 c 4,35,36
 1550 1 1550 1 1284 1 c 0,37,38
 1192 1 1192 1 1098 41 c 4,39,40
 986 88 986 88 953 149 c 4,41,42
 947 160 947 160 942 171 c 5,43,44
 802 88 802 88 613 41 c 4,45,46
 486 9 486 9 368 9 c 4,47,48
 246 9 246 9 67 188 c 6,49,-1
 65 190 l 5,50,51
 64 218 64 218 64 243 c 4,52,53
 64 499 64 499 135 748 c 4,54,55
 151 804 151 804 151 845 c 4,56,57
 151 916 151 916 107 947 c 4,58,59
 71 972 71 972 5 972 c 4,60,61
 -33 972 -33 972 -83 963 c 6,62,-1
 -116 957 l 5,63,-1
 -92 980 l 6,64,65
 -20 1049 -20 1049 83 1093 c 4,66,67
 200 1143 200 1143 327 1143 c 6,68,-1
 334 1143 l 5,69,-1
 337 1138 l 6,70,71
 400 1033 400 1033 400 896 c 4,72,73
 400 765 400 765 341 617 c 4,74,75
 301 515 301 515 301 430 c 4,76,77
 301 272 301 272 437 167 c 5,78,79
 510 161 510 161 535 161 c 4,80,81
 669 161 669 161 756 206 c 4,82,83
 874 266 874 266 945 372 c 5,84,-1
 945 934 l 5,85,86
 919 962 919 962 877 962 c 6,87,-1
 866 962 l 5,88,89
 815 958 815 958 760 944 c 6,90,-1
 713 932 l 5,91,-1
 751 962 l 6,92,93
 827 1022 827 1022 933 1073 c 4,0,1
EndSplineSet
Validated: 1
EndChar

StartChar: W
Encoding: 87 87 48
Width: 1892
VWidth: 1917
Flags: W
HStem: 1 143<1214.46 1401> 9 152<307 660.088> 962 113<1364.82 1499.77> 1084 59G<263.5 337 1033.5 1095>
VStem: 64 237<269.02 623.062> 151 249<656.334 946.136> 945 245<319.693 959.532> 1676 238<469.097 798.242>
LayerCount: 2
Fore
SplineSet
933 1073 m 4,0,1
 997 1104 997 1104 1070 1104 c 4,2,3
 1120 1104 1120 1104 1180 1088 c 5,4,-1
 1182 1082 l 6,5,6
 1188 1064 1188 1064 1190 607 c 4,7,8
 1192 284 1192 284 1217 159 c 4,9,10
 1220 144 1220 144 1249 144 c 4,11,12
 1291 144 1291 144 1377 177 c 4,13,14
 1656 282 1656 282 1674 562 c 4,15,16
 1676 585 1676 585 1676 606 c 4,17,18
 1676 791 1676 791 1563 879 c 4,19,20
 1466 954 1466 954 1305 961 c 6,21,-1
 1283 962 l 5,22,-1
 1298 978 l 6,23,24
 1389 1075 1389 1075 1546 1075 c 6,25,-1
 1549 1075 l 6,26,27
 1565 1075 1565 1075 1580 1074 c 4,28,29
 1752 1064 1752 1064 1838 959 c 4,30,-1
 1839 958 l 5,31,32
 1914 826 1914 826 1914 694 c 4,33,34
 1914 497 1914 497 1796 336 c 4,35,36
 1550 1 1550 1 1284 1 c 0,37,38
 1192 1 1192 1 1098 41 c 4,39,40
 986 88 986 88 953 149 c 4,41,42
 947 160 947 160 942 171 c 5,43,44
 802 88 802 88 613 41 c 4,45,46
 486 9 486 9 368 9 c 4,47,48
 246 9 246 9 67 188 c 6,49,-1
 65 190 l 5,50,51
 64 218 64 218 64 243 c 4,52,53
 64 499 64 499 135 748 c 4,54,55
 151 804 151 804 151 845 c 4,56,57
 151 916 151 916 107 947 c 4,58,59
 71 972 71 972 5 972 c 4,60,61
 -33 972 -33 972 -83 963 c 6,62,-1
 -116 957 l 5,63,-1
 -92 980 l 6,64,65
 -20 1049 -20 1049 83 1093 c 4,66,67
 200 1143 200 1143 327 1143 c 6,68,-1
 334 1143 l 5,69,-1
 337 1138 l 6,70,71
 400 1033 400 1033 400 896 c 4,72,73
 400 765 400 765 341 617 c 4,74,75
 301 515 301 515 301 430 c 4,76,77
 301 272 301 272 437 167 c 5,78,79
 510 161 510 161 535 161 c 4,80,81
 669 161 669 161 756 206 c 4,82,83
 874 266 874 266 945 372 c 5,84,-1
 945 934 l 5,85,86
 919 962 919 962 877 962 c 6,87,-1
 866 962 l 5,88,89
 815 958 815 958 760 944 c 6,90,-1
 713 932 l 5,91,-1
 751 962 l 6,92,93
 827 1022 827 1022 933 1073 c 4,0,1
EndSplineSet
EndChar

